<mxfile host="65bd71144e">
    <diagram name="Page-1" id="RLpNFiHXiG-sAVKEgtaA">
        <mxGraphModel dx="947" dy="1842" grid="1" gridSize="10" guides="1" tooltips="1" connect="1" arrows="1" fold="1" page="1" pageScale="1" pageWidth="827" pageHeight="1169" math="1" shadow="0">
            <root>
                <mxCell id="0"/>
                <mxCell id="1" parent="0"/>
                <mxCell id="KbBnwbsYyjUJBn2AxFHm-1" value="" style="rounded=1;whiteSpace=wrap;html=1;fillColor=#fff2cc;strokeColor=#d6b656;absoluteArcSize=1;" parent="1" vertex="1">
                    <mxGeometry x="1" y="10" width="199" height="390" as="geometry"/>
                </mxCell>
                <mxCell id="C82nVLx3EcEH5GJK0T5T-41" value="" style="rounded=1;whiteSpace=wrap;html=1;fillColor=#f5f5f5;fontColor=#333333;strokeColor=#666666;" parent="1" vertex="1">
                    <mxGeometry x="9.5" y="36" width="181" height="42" as="geometry"/>
                </mxCell>
                <mxCell id="NsjN8VoXxCyJ3gS6qNYf-14" value="" style="rounded=1;whiteSpace=wrap;html=1;fillColor=#eeeeee;absoluteArcSize=1;strokeColor=#36393d;" parent="1" vertex="1">
                    <mxGeometry x="10" y="299" width="181" height="93" as="geometry"/>
                </mxCell>
                <mxCell id="C82nVLx3EcEH5GJK0T5T-31" value="" style="rounded=1;whiteSpace=wrap;html=1;fillColor=#f5f5f5;absoluteArcSize=1;arcSize=12;fontColor=#333333;strokeColor=#666666;" parent="1" vertex="1">
                    <mxGeometry x="9.5" y="226" width="181" height="69" as="geometry"/>
                </mxCell>
                <mxCell id="KbBnwbsYyjUJBn2AxFHm-2" value="" style="rounded=1;whiteSpace=wrap;html=1;fillColor=#f8cecc;strokeColor=#b85450;absoluteArcSize=1;" parent="1" vertex="1">
                    <mxGeometry x="207" y="10" width="184" height="390" as="geometry"/>
                </mxCell>
                <mxCell id="KYuE0DD9sM46bIQEkPxD-24" value="" style="rounded=1;whiteSpace=wrap;html=1;fillColor=#eeeeee;absoluteArcSize=1;strokeColor=#36393d;" parent="1" vertex="1">
                    <mxGeometry x="216" y="80" width="166" height="310" as="geometry"/>
                </mxCell>
                <mxCell id="KYuE0DD9sM46bIQEkPxD-23" value="" style="rounded=1;whiteSpace=wrap;html=1;fillColor=#eeeeee;absoluteArcSize=1;strokeColor=#36393d;" parent="1" vertex="1">
                    <mxGeometry x="216" y="41" width="166" height="24" as="geometry"/>
                </mxCell>
                <mxCell id="KbBnwbsYyjUJBn2AxFHm-127" value="$$\text{homophily } h_{min}, h_{ max}$$" style="text;html=1;align=center;verticalAlign=middle;whiteSpace=wrap;rounded=0;" parent="1" vertex="1">
                    <mxGeometry x="267" y="90" width="60" height="30" as="geometry"/>
                </mxCell>
                <mxCell id="KbBnwbsYyjUJBn2AxFHm-129" value="$$\text{degree } d_{min}, d_{max}$$" style="text;html=1;align=center;verticalAlign=middle;whiteSpace=wrap;rounded=0;" parent="1" vertex="1">
                    <mxGeometry x="266" y="135" width="60" height="30" as="geometry"/>
                </mxCell>
                <mxCell id="KbBnwbsYyjUJBn2AxFHm-135" value="$$\text{# nodes } n_{min}, n_{max}$$" style="text;html=1;align=center;verticalAlign=middle;whiteSpace=wrap;rounded=0;" parent="1" vertex="1">
                    <mxGeometry x="267" y="180" width="60" height="30" as="geometry"/>
                </mxCell>
                <mxCell id="KbBnwbsYyjUJBn2AxFHm-141" value="$$\text{# graphs:&amp;nbsp; &amp;nbsp;} \color{red}g$$" style="text;html=1;align=center;verticalAlign=middle;whiteSpace=wrap;rounded=0;" parent="1" vertex="1">
                    <mxGeometry x="267" y="38" width="60" height="30" as="geometry"/>
                </mxCell>
                <mxCell id="CUuBMCauSZTbOeWWz95r-10" value="&lt;span style=&quot;color: rgb(0, 0, 0); font-family: Helvetica; font-size: 12px; font-style: normal; font-variant-ligatures: normal; font-variant-caps: normal; font-weight: 400; letter-spacing: normal; orphans: 2; text-align: center; text-indent: 0px; text-transform: none; widows: 2; word-spacing: 0px; -webkit-text-stroke-width: 0px; background-color: rgb(251, 251, 251); text-decoration-thickness: initial; text-decoration-style: initial; text-decoration-color: initial; float: none; display: inline !important;&quot;&gt;$$\textbf{FAMILY}$$&lt;/span&gt;" style="text;whiteSpace=wrap;html=1;" parent="1" vertex="1">
                    <mxGeometry x="262.5" y="-1.0000000000000102" width="73" height="40" as="geometry"/>
                </mxCell>
                <mxCell id="KbBnwbsYyjUJBn2AxFHm-70" value="" style="shape=table;startSize=0;container=1;collapsible=0;childLayout=tableLayout;fontSize=16;flipV=0;flipH=1;direction=north;" parent="1" vertex="1">
                    <mxGeometry x="38" y="263.37" width="131" height="23" as="geometry"/>
                </mxCell>
                <mxCell id="KbBnwbsYyjUJBn2AxFHm-71" value="" style="shape=tableRow;horizontal=0;startSize=0;swimlaneHead=0;swimlaneBody=0;strokeColor=inherit;top=0;left=0;bottom=0;right=0;collapsible=0;dropTarget=0;fillColor=none;points=[[0,0.5],[1,0.5]];portConstraint=eastwest;fontSize=16;" parent="KbBnwbsYyjUJBn2AxFHm-70" vertex="1">
                    <mxGeometry width="131" height="23" as="geometry"/>
                </mxCell>
                <mxCell id="KbBnwbsYyjUJBn2AxFHm-72" value=".8" style="shape=partialRectangle;html=1;whiteSpace=wrap;connectable=0;strokeColor=inherit;overflow=hidden;fillColor=none;top=0;left=0;bottom=0;right=0;pointerEvents=1;fontSize=12;" parent="KbBnwbsYyjUJBn2AxFHm-71" vertex="1">
                    <mxGeometry width="33" height="23" as="geometry">
                        <mxRectangle width="33" height="23" as="alternateBounds"/>
                    </mxGeometry>
                </mxCell>
                <mxCell id="C82nVLx3EcEH5GJK0T5T-11" value="-.1" style="shape=partialRectangle;html=1;whiteSpace=wrap;connectable=0;strokeColor=inherit;overflow=hidden;fillColor=none;top=0;left=0;bottom=0;right=0;pointerEvents=1;fontSize=12;" parent="KbBnwbsYyjUJBn2AxFHm-71" vertex="1">
                    <mxGeometry x="33" width="33" height="23" as="geometry">
                        <mxRectangle width="33" height="23" as="alternateBounds"/>
                    </mxGeometry>
                </mxCell>
                <mxCell id="C82nVLx3EcEH5GJK0T5T-15" value=".2" style="shape=partialRectangle;html=1;whiteSpace=wrap;connectable=0;strokeColor=inherit;overflow=hidden;fillColor=none;top=0;left=0;bottom=0;right=0;pointerEvents=1;fontSize=12;" parent="KbBnwbsYyjUJBn2AxFHm-71" vertex="1">
                    <mxGeometry x="66" width="32" height="23" as="geometry">
                        <mxRectangle width="32" height="23" as="alternateBounds"/>
                    </mxGeometry>
                </mxCell>
                <mxCell id="C82nVLx3EcEH5GJK0T5T-19" value="-.9" style="shape=partialRectangle;html=1;whiteSpace=wrap;connectable=0;strokeColor=inherit;overflow=hidden;fillColor=none;top=0;left=0;bottom=0;right=0;pointerEvents=1;fontSize=12;" parent="KbBnwbsYyjUJBn2AxFHm-71" vertex="1">
                    <mxGeometry x="98" width="33" height="23" as="geometry">
                        <mxRectangle width="33" height="23" as="alternateBounds"/>
                    </mxGeometry>
                </mxCell>
                <mxCell id="KbBnwbsYyjUJBn2AxFHm-96" value="" style="shape=table;html=1;whiteSpace=wrap;startSize=0;container=1;collapsible=0;childLayout=tableLayout;columnLines=3;rowLines=1;fontSize=16;strokeColor=default;rounded=1;arcSize=50;" parent="1" vertex="1">
                    <mxGeometry x="48" y="328" width="130" height="40" as="geometry"/>
                </mxCell>
                <mxCell id="KbBnwbsYyjUJBn2AxFHm-97" value="" style="shape=tableRow;horizontal=0;startSize=0;swimlaneHead=0;swimlaneBody=0;top=0;left=0;bottom=0;right=0;collapsible=0;dropTarget=0;fillColor=none;points=[[0,0.5],[1,0.5]];portConstraint=eastwest;fontSize=16;strokeColor=inherit;" parent="KbBnwbsYyjUJBn2AxFHm-96" vertex="1">
                    <mxGeometry width="130" height="19" as="geometry"/>
                </mxCell>
                <mxCell id="KbBnwbsYyjUJBn2AxFHm-98" value="-.2" style="shape=partialRectangle;html=1;whiteSpace=wrap;connectable=0;fillColor=none;top=0;left=0;bottom=0;right=0;overflow=hidden;fontSize=12;strokeColor=default;" parent="KbBnwbsYyjUJBn2AxFHm-97" vertex="1">
                    <mxGeometry width="33" height="19" as="geometry">
                        <mxRectangle width="33" height="19" as="alternateBounds"/>
                    </mxGeometry>
                </mxCell>
                <mxCell id="KbBnwbsYyjUJBn2AxFHm-99" value=".0" style="shape=partialRectangle;html=1;whiteSpace=wrap;connectable=0;fillColor=none;top=0;left=0;bottom=0;right=0;overflow=hidden;fontSize=12;strokeColor=default;" parent="KbBnwbsYyjUJBn2AxFHm-97" vertex="1">
                    <mxGeometry x="33" width="32" height="19" as="geometry">
                        <mxRectangle width="32" height="19" as="alternateBounds"/>
                    </mxGeometry>
                </mxCell>
                <mxCell id="KbBnwbsYyjUJBn2AxFHm-100" value=".1" style="shape=partialRectangle;html=1;whiteSpace=wrap;connectable=0;fillColor=none;top=0;left=0;bottom=0;right=0;overflow=hidden;fontSize=12;strokeColor=inherit;" parent="KbBnwbsYyjUJBn2AxFHm-97" vertex="1">
                    <mxGeometry x="65" width="33" height="19" as="geometry">
                        <mxRectangle width="33" height="19" as="alternateBounds"/>
                    </mxGeometry>
                </mxCell>
                <mxCell id="KbBnwbsYyjUJBn2AxFHm-113" value="-.5" style="shape=partialRectangle;html=1;whiteSpace=wrap;connectable=0;fillColor=none;top=0;left=0;bottom=0;right=0;overflow=hidden;fontSize=12;strokeColor=inherit;" parent="KbBnwbsYyjUJBn2AxFHm-97" vertex="1">
                    <mxGeometry x="98" width="32" height="19" as="geometry">
                        <mxRectangle width="32" height="19" as="alternateBounds"/>
                    </mxGeometry>
                </mxCell>
                <mxCell id="KbBnwbsYyjUJBn2AxFHm-101" value="" style="shape=tableRow;horizontal=0;startSize=0;swimlaneHead=0;swimlaneBody=0;top=0;left=0;bottom=0;right=0;collapsible=0;dropTarget=0;fillColor=none;points=[[0,0.5],[1,0.5]];portConstraint=eastwest;fontSize=16;strokeColor=inherit;" parent="KbBnwbsYyjUJBn2AxFHm-96" vertex="1">
                    <mxGeometry y="19" width="130" height="21" as="geometry"/>
                </mxCell>
                <mxCell id="KbBnwbsYyjUJBn2AxFHm-103" value=".2" style="shape=partialRectangle;html=1;whiteSpace=wrap;connectable=0;fillColor=none;top=0;left=0;bottom=0;right=0;overflow=hidden;fontSize=12;strokeColor=inherit;rowspan=1;colspan=4;" parent="KbBnwbsYyjUJBn2AxFHm-101" vertex="1">
                    <mxGeometry width="130" height="21" as="geometry">
                        <mxRectangle width="33" height="21" as="alternateBounds"/>
                    </mxGeometry>
                </mxCell>
                <mxCell id="KbBnwbsYyjUJBn2AxFHm-104" value="" style="shape=partialRectangle;html=1;whiteSpace=wrap;connectable=0;fillColor=none;top=0;left=0;bottom=0;right=0;overflow=hidden;fontSize=12;strokeColor=inherit;" parent="KbBnwbsYyjUJBn2AxFHm-101" vertex="1" visible="0">
                    <mxGeometry x="33" width="32" height="21" as="geometry">
                        <mxRectangle width="32" height="21" as="alternateBounds"/>
                    </mxGeometry>
                </mxCell>
                <mxCell id="KbBnwbsYyjUJBn2AxFHm-114" value="" style="shape=partialRectangle;html=1;whiteSpace=wrap;connectable=0;fillColor=none;top=0;left=0;bottom=0;right=0;overflow=hidden;fontSize=12;strokeColor=inherit;" parent="KbBnwbsYyjUJBn2AxFHm-101" vertex="1" visible="0">
                    <mxGeometry x="65" width="33" height="21" as="geometry">
                        <mxRectangle width="33" height="21" as="alternateBounds"/>
                    </mxGeometry>
                </mxCell>
                <mxCell id="KbBnwbsYyjUJBn2AxFHm-102" value=".2" style="shape=partialRectangle;html=1;whiteSpace=wrap;connectable=0;fillColor=none;top=0;left=0;bottom=0;right=0;overflow=hidden;fontSize=12;strokeColor=inherit;" parent="KbBnwbsYyjUJBn2AxFHm-101" vertex="1" visible="0">
                    <mxGeometry x="98" width="32" height="21" as="geometry">
                        <mxRectangle width="32" height="21" as="alternateBounds"/>
                    </mxGeometry>
                </mxCell>
                <mxCell id="KbBnwbsYyjUJBn2AxFHm-109" value="" style="ellipse;whiteSpace=wrap;html=1;aspect=fixed;fillColor=#f8cecc;strokeColor=#b85450;strokeWidth=3;" parent="1" vertex="1">
                    <mxGeometry x="61" y="373" width="10" height="10" as="geometry"/>
                </mxCell>
                <mxCell id="KbBnwbsYyjUJBn2AxFHm-110" value="" style="ellipse;whiteSpace=wrap;html=1;aspect=fixed;fillColor=#d5e8d4;strokeColor=#82b366;strokeWidth=3;" parent="1" vertex="1">
                    <mxGeometry x="94" y="373" width="10" height="10" as="geometry"/>
                </mxCell>
                <mxCell id="KbBnwbsYyjUJBn2AxFHm-111" value="" style="ellipse;whiteSpace=wrap;html=1;aspect=fixed;fillColor=#dae8fc;strokeColor=#6c8ebf;strokeWidth=3;" parent="1" vertex="1">
                    <mxGeometry x="126" y="373" width="10" height="10" as="geometry"/>
                </mxCell>
                <mxCell id="KbBnwbsYyjUJBn2AxFHm-112" value="" style="ellipse;whiteSpace=wrap;html=1;aspect=fixed;fillColor=#ffe6cc;strokeColor=#d79b00;strokeWidth=3;" parent="1" vertex="1">
                    <mxGeometry x="159" y="373" width="10" height="10" as="geometry"/>
                </mxCell>
                <mxCell id="KbBnwbsYyjUJBn2AxFHm-116" value="$$\boldsymbol{\mu}$$" style="text;html=1;align=center;verticalAlign=middle;whiteSpace=wrap;rounded=0;" parent="1" vertex="1">
                    <mxGeometry x="18" y="328" width="30" height="20" as="geometry"/>
                </mxCell>
                <mxCell id="KbBnwbsYyjUJBn2AxFHm-118" value="$$\boldsymbol{\sigma}$$" style="text;html=1;align=center;verticalAlign=middle;whiteSpace=wrap;rounded=0;" parent="1" vertex="1">
                    <mxGeometry x="18" y="348" width="30" height="20" as="geometry"/>
                </mxCell>
                <mxCell id="CUuBMCauSZTbOeWWz95r-8" value="$$\textbf{UNIVERSE}$$" style="text;html=1;align=center;verticalAlign=middle;whiteSpace=wrap;rounded=0;" parent="1" vertex="1">
                    <mxGeometry x="72" y="10" width="60" height="30" as="geometry"/>
                </mxCell>
                <mxCell id="CUuBMCauSZTbOeWWz95r-25" value="" style="group;movable=1;resizable=1;rotatable=1;deletable=1;editable=1;locked=0;connectable=1;" parent="1" vertex="1" connectable="0">
                    <mxGeometry x="46" y="91" width="146.5" height="139" as="geometry"/>
                </mxCell>
                <mxCell id="C82nVLx3EcEH5GJK0T5T-32" value="" style="rounded=1;whiteSpace=wrap;html=1;fillColor=#eeeeee;absoluteArcSize=1;strokeColor=#36393d;" parent="CUuBMCauSZTbOeWWz95r-25" vertex="1">
                    <mxGeometry x="-36.5" y="-9" width="181" height="140" as="geometry"/>
                </mxCell>
                <mxCell id="KbBnwbsYyjUJBn2AxFHm-33" value="" style="shape=table;startSize=0;container=1;collapsible=0;childLayout=tableLayout;fontSize=16;movable=1;resizable=1;rotatable=1;deletable=1;editable=1;locked=0;connectable=1;strokeWidth=4;" parent="CUuBMCauSZTbOeWWz95r-25" vertex="1">
                    <mxGeometry x="14" y="30" width="96" height="95" as="geometry"/>
                </mxCell>
                <mxCell id="KbBnwbsYyjUJBn2AxFHm-34" value="" style="shape=tableRow;horizontal=0;startSize=0;swimlaneHead=0;swimlaneBody=0;strokeColor=inherit;top=0;left=0;bottom=0;right=0;collapsible=0;dropTarget=0;fillColor=none;points=[[0,0.5],[1,0.5]];portConstraint=eastwest;fontSize=16;movable=1;resizable=1;rotatable=1;deletable=1;editable=1;locked=0;connectable=1;" parent="KbBnwbsYyjUJBn2AxFHm-33" vertex="1">
                    <mxGeometry width="96" height="24" as="geometry"/>
                </mxCell>
                <mxCell id="KbBnwbsYyjUJBn2AxFHm-35" value="" style="shape=partialRectangle;html=1;whiteSpace=wrap;connectable=1;strokeColor=inherit;overflow=hidden;fillColor=#4D4D4D;top=0;left=0;bottom=0;right=0;pointerEvents=1;fontSize=16;movable=1;resizable=1;rotatable=1;deletable=1;editable=1;locked=0;" parent="KbBnwbsYyjUJBn2AxFHm-34" vertex="1">
                    <mxGeometry width="24" height="24" as="geometry">
                        <mxRectangle width="24" height="24" as="alternateBounds"/>
                    </mxGeometry>
                </mxCell>
                <mxCell id="KbBnwbsYyjUJBn2AxFHm-36" value="" style="shape=partialRectangle;html=1;whiteSpace=wrap;connectable=1;strokeColor=inherit;overflow=hidden;fillColor=#999999;top=0;left=0;bottom=0;right=0;pointerEvents=1;fontSize=16;movable=1;resizable=1;rotatable=1;deletable=1;editable=1;locked=0;" parent="KbBnwbsYyjUJBn2AxFHm-34" vertex="1">
                    <mxGeometry x="24" width="23" height="24" as="geometry">
                        <mxRectangle width="23" height="24" as="alternateBounds"/>
                    </mxGeometry>
                </mxCell>
                <mxCell id="KbBnwbsYyjUJBn2AxFHm-37" value="" style="shape=partialRectangle;html=1;whiteSpace=wrap;connectable=1;strokeColor=inherit;overflow=hidden;fillColor=#696969;top=0;left=0;bottom=0;right=0;pointerEvents=1;fontSize=16;movable=1;resizable=1;rotatable=1;deletable=1;editable=1;locked=0;" parent="KbBnwbsYyjUJBn2AxFHm-34" vertex="1">
                    <mxGeometry x="47" width="25" height="24" as="geometry">
                        <mxRectangle width="25" height="24" as="alternateBounds"/>
                    </mxGeometry>
                </mxCell>
                <mxCell id="KbBnwbsYyjUJBn2AxFHm-46" style="shape=partialRectangle;html=1;whiteSpace=wrap;connectable=1;strokeColor=inherit;overflow=hidden;fillColor=#E0E0E0;top=0;left=0;bottom=0;right=0;pointerEvents=1;fontSize=16;movable=1;resizable=1;rotatable=1;deletable=1;editable=1;locked=0;" parent="KbBnwbsYyjUJBn2AxFHm-34" vertex="1">
                    <mxGeometry x="72" width="24" height="24" as="geometry">
                        <mxRectangle width="24" height="24" as="alternateBounds"/>
                    </mxGeometry>
                </mxCell>
                <mxCell id="KbBnwbsYyjUJBn2AxFHm-38" value="" style="shape=tableRow;horizontal=0;startSize=0;swimlaneHead=0;swimlaneBody=0;strokeColor=inherit;top=0;left=0;bottom=0;right=0;collapsible=0;dropTarget=0;fillColor=none;points=[[0,0.5],[1,0.5]];portConstraint=eastwest;fontSize=16;movable=1;resizable=1;rotatable=1;deletable=1;editable=1;locked=0;connectable=1;" parent="KbBnwbsYyjUJBn2AxFHm-33" vertex="1">
                    <mxGeometry y="24" width="96" height="24" as="geometry"/>
                </mxCell>
                <mxCell id="KbBnwbsYyjUJBn2AxFHm-39" value="" style="shape=partialRectangle;html=1;whiteSpace=wrap;connectable=1;strokeColor=inherit;overflow=hidden;fillColor=#999999;top=0;left=0;bottom=0;right=0;pointerEvents=1;fontSize=16;movable=1;resizable=1;rotatable=1;deletable=1;editable=1;locked=0;" parent="KbBnwbsYyjUJBn2AxFHm-38" vertex="1">
                    <mxGeometry width="24" height="24" as="geometry">
                        <mxRectangle width="24" height="24" as="alternateBounds"/>
                    </mxGeometry>
                </mxCell>
                <mxCell id="KbBnwbsYyjUJBn2AxFHm-40" value="" style="shape=partialRectangle;html=1;whiteSpace=wrap;connectable=1;strokeColor=inherit;overflow=hidden;fillColor=#CCCCCC;top=0;left=0;bottom=0;right=0;pointerEvents=1;fontSize=16;movable=1;resizable=1;rotatable=1;deletable=1;editable=1;locked=0;" parent="KbBnwbsYyjUJBn2AxFHm-38" vertex="1">
                    <mxGeometry x="24" width="23" height="24" as="geometry">
                        <mxRectangle width="23" height="24" as="alternateBounds"/>
                    </mxGeometry>
                </mxCell>
                <mxCell id="KbBnwbsYyjUJBn2AxFHm-41" value="" style="shape=partialRectangle;html=1;whiteSpace=wrap;connectable=1;strokeColor=inherit;overflow=hidden;fillColor=#B3B3B3;top=0;left=0;bottom=0;right=0;pointerEvents=1;fontSize=16;movable=1;resizable=1;rotatable=1;deletable=1;editable=1;locked=0;" parent="KbBnwbsYyjUJBn2AxFHm-38" vertex="1">
                    <mxGeometry x="47" width="25" height="24" as="geometry">
                        <mxRectangle width="25" height="24" as="alternateBounds"/>
                    </mxGeometry>
                </mxCell>
                <mxCell id="KbBnwbsYyjUJBn2AxFHm-47" style="shape=partialRectangle;html=1;whiteSpace=wrap;connectable=1;strokeColor=inherit;overflow=hidden;fillColor=#474747;top=0;left=0;bottom=0;right=0;pointerEvents=1;fontSize=16;movable=1;resizable=1;rotatable=1;deletable=1;editable=1;locked=0;" parent="KbBnwbsYyjUJBn2AxFHm-38" vertex="1">
                    <mxGeometry x="72" width="24" height="24" as="geometry">
                        <mxRectangle width="24" height="24" as="alternateBounds"/>
                    </mxGeometry>
                </mxCell>
                <mxCell id="KbBnwbsYyjUJBn2AxFHm-42" value="" style="shape=tableRow;horizontal=0;startSize=0;swimlaneHead=0;swimlaneBody=0;strokeColor=inherit;top=0;left=0;bottom=0;right=0;collapsible=0;dropTarget=0;fillColor=none;points=[[0,0.5],[1,0.5]];portConstraint=eastwest;fontSize=16;movable=1;resizable=1;rotatable=1;deletable=1;editable=1;locked=0;connectable=1;" parent="KbBnwbsYyjUJBn2AxFHm-33" vertex="1">
                    <mxGeometry y="48" width="96" height="23" as="geometry"/>
                </mxCell>
                <mxCell id="KbBnwbsYyjUJBn2AxFHm-43" value="" style="shape=partialRectangle;html=1;whiteSpace=wrap;connectable=1;strokeColor=inherit;overflow=hidden;fillColor=#696969;top=0;left=0;bottom=0;right=0;pointerEvents=1;fontSize=16;movable=1;resizable=1;rotatable=1;deletable=1;editable=1;locked=0;" parent="KbBnwbsYyjUJBn2AxFHm-42" vertex="1">
                    <mxGeometry width="24" height="23" as="geometry">
                        <mxRectangle width="24" height="23" as="alternateBounds"/>
                    </mxGeometry>
                </mxCell>
                <mxCell id="KbBnwbsYyjUJBn2AxFHm-44" value="" style="shape=partialRectangle;html=1;whiteSpace=wrap;connectable=1;strokeColor=inherit;overflow=hidden;fillColor=#b3b3b3;top=0;left=0;bottom=0;right=0;pointerEvents=1;fontSize=16;movable=1;resizable=1;rotatable=1;deletable=1;editable=1;locked=0;" parent="KbBnwbsYyjUJBn2AxFHm-42" vertex="1">
                    <mxGeometry x="24" width="23" height="23" as="geometry">
                        <mxRectangle width="23" height="23" as="alternateBounds"/>
                    </mxGeometry>
                </mxCell>
                <mxCell id="KbBnwbsYyjUJBn2AxFHm-45" value="" style="shape=partialRectangle;html=1;whiteSpace=wrap;connectable=1;strokeColor=inherit;overflow=hidden;fillColor=#000000;top=0;left=0;bottom=0;right=0;pointerEvents=1;fontSize=16;movable=1;resizable=1;rotatable=1;deletable=1;editable=1;locked=0;" parent="KbBnwbsYyjUJBn2AxFHm-42" vertex="1">
                    <mxGeometry x="47" width="25" height="23" as="geometry">
                        <mxRectangle width="25" height="23" as="alternateBounds"/>
                    </mxGeometry>
                </mxCell>
                <mxCell id="KbBnwbsYyjUJBn2AxFHm-48" style="shape=partialRectangle;html=1;whiteSpace=wrap;connectable=1;strokeColor=inherit;overflow=hidden;fillColor=#575757;top=0;left=0;bottom=0;right=0;pointerEvents=1;fontSize=16;movable=1;resizable=1;rotatable=1;deletable=1;editable=1;locked=0;" parent="KbBnwbsYyjUJBn2AxFHm-42" vertex="1">
                    <mxGeometry x="72" width="24" height="23" as="geometry">
                        <mxRectangle width="24" height="23" as="alternateBounds"/>
                    </mxGeometry>
                </mxCell>
                <mxCell id="KbBnwbsYyjUJBn2AxFHm-49" style="shape=tableRow;horizontal=0;startSize=0;swimlaneHead=0;swimlaneBody=0;strokeColor=inherit;top=0;left=0;bottom=0;right=0;collapsible=0;dropTarget=0;fillColor=none;points=[[0,0.5],[1,0.5]];portConstraint=eastwest;fontSize=16;movable=1;resizable=1;rotatable=1;deletable=1;editable=1;locked=0;connectable=1;" parent="KbBnwbsYyjUJBn2AxFHm-33" vertex="1">
                    <mxGeometry y="71" width="96" height="24" as="geometry"/>
                </mxCell>
                <mxCell id="KbBnwbsYyjUJBn2AxFHm-50" style="shape=partialRectangle;html=1;whiteSpace=wrap;connectable=1;strokeColor=inherit;overflow=hidden;fillColor=#e0e0e0;top=0;left=0;bottom=0;right=0;pointerEvents=1;fontSize=16;movable=1;resizable=1;rotatable=1;deletable=1;editable=1;locked=0;" parent="KbBnwbsYyjUJBn2AxFHm-49" vertex="1">
                    <mxGeometry width="24" height="24" as="geometry">
                        <mxRectangle width="24" height="24" as="alternateBounds"/>
                    </mxGeometry>
                </mxCell>
                <mxCell id="KbBnwbsYyjUJBn2AxFHm-51" style="shape=partialRectangle;html=1;whiteSpace=wrap;connectable=1;strokeColor=inherit;overflow=hidden;fillColor=#474747;top=0;left=0;bottom=0;right=0;pointerEvents=1;fontSize=16;movable=1;resizable=1;rotatable=1;deletable=1;editable=1;locked=0;" parent="KbBnwbsYyjUJBn2AxFHm-49" vertex="1">
                    <mxGeometry x="24" width="23" height="24" as="geometry">
                        <mxRectangle width="23" height="24" as="alternateBounds"/>
                    </mxGeometry>
                </mxCell>
                <mxCell id="KbBnwbsYyjUJBn2AxFHm-52" style="shape=partialRectangle;html=1;whiteSpace=wrap;connectable=1;strokeColor=inherit;overflow=hidden;fillColor=#575757;top=0;left=0;bottom=0;right=0;pointerEvents=1;fontSize=16;movable=1;resizable=1;rotatable=1;deletable=1;editable=1;locked=0;" parent="KbBnwbsYyjUJBn2AxFHm-49" vertex="1">
                    <mxGeometry x="47" width="25" height="24" as="geometry">
                        <mxRectangle width="25" height="24" as="alternateBounds"/>
                    </mxGeometry>
                </mxCell>
                <mxCell id="KbBnwbsYyjUJBn2AxFHm-53" style="shape=partialRectangle;html=1;whiteSpace=wrap;connectable=1;strokeColor=inherit;overflow=hidden;fillColor=#292929;top=0;left=0;bottom=0;right=0;pointerEvents=1;fontSize=16;movable=1;resizable=1;rotatable=1;deletable=1;editable=1;locked=0;" parent="KbBnwbsYyjUJBn2AxFHm-49" vertex="1">
                    <mxGeometry x="72" width="24" height="24" as="geometry">
                        <mxRectangle width="24" height="24" as="alternateBounds"/>
                    </mxGeometry>
                </mxCell>
                <mxCell id="KbBnwbsYyjUJBn2AxFHm-63" value="" style="group;movable=1;resizable=1;rotatable=1;deletable=1;editable=1;locked=0;connectable=1;" parent="CUuBMCauSZTbOeWWz95r-25" vertex="1" connectable="0">
                    <mxGeometry x="19" y="17" width="86" height="10" as="geometry"/>
                </mxCell>
                <mxCell id="KbBnwbsYyjUJBn2AxFHm-55" value="" style="ellipse;whiteSpace=wrap;html=1;aspect=fixed;fillColor=#f8cecc;strokeColor=#b85450;movable=1;resizable=1;rotatable=1;deletable=1;editable=1;locked=0;connectable=1;strokeWidth=3;" parent="KbBnwbsYyjUJBn2AxFHm-63" vertex="1">
                    <mxGeometry y="-2" width="10" height="10" as="geometry"/>
                </mxCell>
                <mxCell id="KbBnwbsYyjUJBn2AxFHm-56" value="" style="ellipse;whiteSpace=wrap;html=1;aspect=fixed;fillColor=#d5e8d4;strokeColor=#82b366;movable=1;resizable=1;rotatable=1;deletable=1;editable=1;locked=0;connectable=1;strokeWidth=3;" parent="KbBnwbsYyjUJBn2AxFHm-63" vertex="1">
                    <mxGeometry x="25" y="-2" width="10" height="10" as="geometry"/>
                </mxCell>
                <mxCell id="KbBnwbsYyjUJBn2AxFHm-57" value="" style="ellipse;whiteSpace=wrap;html=1;aspect=fixed;fillColor=#dae8fc;strokeColor=#6c8ebf;movable=1;resizable=1;rotatable=1;deletable=1;editable=1;locked=0;connectable=1;strokeWidth=3;" parent="KbBnwbsYyjUJBn2AxFHm-63" vertex="1">
                    <mxGeometry x="51" y="-2" width="10" height="10" as="geometry"/>
                </mxCell>
                <mxCell id="KbBnwbsYyjUJBn2AxFHm-58" value="" style="ellipse;whiteSpace=wrap;html=1;aspect=fixed;fillColor=#ffe6cc;strokeColor=#d79b00;movable=1;resizable=1;rotatable=1;deletable=1;editable=1;locked=0;connectable=1;strokeWidth=3;" parent="KbBnwbsYyjUJBn2AxFHm-63" vertex="1">
                    <mxGeometry x="76" y="-2" width="10" height="10" as="geometry"/>
                </mxCell>
                <mxCell id="KbBnwbsYyjUJBn2AxFHm-64" value="" style="group;flipV=1;flipH=0;rotation=90;movable=1;resizable=1;rotatable=1;deletable=1;editable=1;locked=0;connectable=1;" parent="CUuBMCauSZTbOeWWz95r-25" vertex="1" connectable="0">
                    <mxGeometry x="-40" y="72" width="86" height="10" as="geometry"/>
                </mxCell>
                <mxCell id="KbBnwbsYyjUJBn2AxFHm-65" value="" style="ellipse;whiteSpace=wrap;html=1;aspect=fixed;fillColor=#f8cecc;strokeColor=#b85450;rotation=90;movable=1;resizable=1;rotatable=1;deletable=1;editable=1;locked=0;connectable=1;strokeWidth=3;" parent="KbBnwbsYyjUJBn2AxFHm-64" vertex="1">
                    <mxGeometry x="38" y="-38" width="10" height="10" as="geometry"/>
                </mxCell>
                <mxCell id="KbBnwbsYyjUJBn2AxFHm-66" value="" style="ellipse;whiteSpace=wrap;html=1;aspect=fixed;fillColor=#d5e8d4;strokeColor=#82b366;rotation=90;movable=1;resizable=1;rotatable=1;deletable=1;editable=1;locked=0;connectable=1;strokeWidth=3;" parent="KbBnwbsYyjUJBn2AxFHm-64" vertex="1">
                    <mxGeometry x="38" y="-13" width="10" height="10" as="geometry"/>
                </mxCell>
                <mxCell id="KbBnwbsYyjUJBn2AxFHm-67" value="" style="ellipse;whiteSpace=wrap;html=1;aspect=fixed;fillColor=#dae8fc;strokeColor=#6c8ebf;rotation=90;movable=1;resizable=1;rotatable=1;deletable=1;editable=1;locked=0;connectable=1;strokeWidth=3;" parent="KbBnwbsYyjUJBn2AxFHm-64" vertex="1">
                    <mxGeometry x="38" y="13" width="10" height="10" as="geometry"/>
                </mxCell>
                <mxCell id="KbBnwbsYyjUJBn2AxFHm-68" value="" style="ellipse;whiteSpace=wrap;html=1;aspect=fixed;fillColor=#ffe6cc;strokeColor=#d79b00;rotation=90;movable=1;resizable=1;rotatable=1;deletable=1;editable=1;locked=0;connectable=1;strokeWidth=3;" parent="KbBnwbsYyjUJBn2AxFHm-64" vertex="1">
                    <mxGeometry x="38" y="38" width="10" height="10" as="geometry"/>
                </mxCell>
                <mxCell id="NsjN8VoXxCyJ3gS6qNYf-1" value="" style="group;flipV=1;" parent="1" vertex="1" connectable="0">
                    <mxGeometry x="265.5" y="162" width="63" height="10" as="geometry"/>
                </mxCell>
                <mxCell id="KbBnwbsYyjUJBn2AxFHm-125" value="" style="endArrow=none;html=1;rounded=0;endFill=0;startArrow=baseDash;startFill=0;" parent="NsjN8VoXxCyJ3gS6qNYf-1" source="KbBnwbsYyjUJBn2AxFHm-131" edge="1">
                    <mxGeometry width="50" height="50" relative="1" as="geometry">
                        <mxPoint y="5" as="sourcePoint"/>
                        <mxPoint x="63" y="5" as="targetPoint"/>
                    </mxGeometry>
                </mxCell>
                <mxCell id="KbBnwbsYyjUJBn2AxFHm-132" value="" style="endArrow=none;html=1;rounded=0;endFill=0;startArrow=baseDash;startFill=0;" parent="NsjN8VoXxCyJ3gS6qNYf-1" target="KbBnwbsYyjUJBn2AxFHm-131" edge="1">
                    <mxGeometry width="50" height="50" relative="1" as="geometry">
                        <mxPoint y="5" as="sourcePoint"/>
                        <mxPoint x="63" y="5" as="targetPoint"/>
                    </mxGeometry>
                </mxCell>
                <mxCell id="KbBnwbsYyjUJBn2AxFHm-131" value="" style="rounded=0;whiteSpace=wrap;html=1;fillColor=#ABABAB;fontColor=#333333;strokeColor=#666666;" parent="NsjN8VoXxCyJ3gS6qNYf-1" vertex="1">
                    <mxGeometry x="2" width="31" height="10" as="geometry"/>
                </mxCell>
                <mxCell id="NsjN8VoXxCyJ3gS6qNYf-2" value="" style="group;flipV=1;" parent="1" vertex="1" connectable="0">
                    <mxGeometry x="265.5" y="206" width="63" height="10" as="geometry"/>
                </mxCell>
                <mxCell id="KbBnwbsYyjUJBn2AxFHm-136" value="" style="endArrow=none;html=1;rounded=0;endFill=0;startArrow=baseDash;startFill=0;" parent="NsjN8VoXxCyJ3gS6qNYf-2" source="KbBnwbsYyjUJBn2AxFHm-138" edge="1">
                    <mxGeometry width="50" height="50" relative="1" as="geometry">
                        <mxPoint y="5" as="sourcePoint"/>
                        <mxPoint x="63" y="5" as="targetPoint"/>
                    </mxGeometry>
                </mxCell>
                <mxCell id="KbBnwbsYyjUJBn2AxFHm-137" value="" style="endArrow=none;html=1;rounded=0;endFill=0;startArrow=baseDash;startFill=0;" parent="NsjN8VoXxCyJ3gS6qNYf-2" target="KbBnwbsYyjUJBn2AxFHm-138" edge="1">
                    <mxGeometry width="50" height="50" relative="1" as="geometry">
                        <mxPoint y="5" as="sourcePoint"/>
                        <mxPoint x="63" y="5" as="targetPoint"/>
                    </mxGeometry>
                </mxCell>
                <mxCell id="KbBnwbsYyjUJBn2AxFHm-138" value="" style="rounded=0;whiteSpace=wrap;html=1;fillColor=#ABABAB;fontColor=#333333;strokeColor=#666666;" parent="NsjN8VoXxCyJ3gS6qNYf-2" vertex="1">
                    <mxGeometry x="28" width="31" height="10" as="geometry"/>
                </mxCell>
                <mxCell id="NsjN8VoXxCyJ3gS6qNYf-3" value="" style="group;flipV=1;" parent="1" vertex="1" connectable="0">
                    <mxGeometry x="265.5" y="264" width="63" height="10" as="geometry"/>
                </mxCell>
                <mxCell id="KbBnwbsYyjUJBn2AxFHm-146" value="" style="endArrow=baseDash;html=1;rounded=0;endFill=0;startArrow=baseDash;startFill=0;" parent="NsjN8VoXxCyJ3gS6qNYf-3" edge="1">
                    <mxGeometry width="50" height="50" relative="1" as="geometry">
                        <mxPoint x="61" y="5" as="sourcePoint"/>
                        <mxPoint x="63" y="5" as="targetPoint"/>
                    </mxGeometry>
                </mxCell>
                <mxCell id="KbBnwbsYyjUJBn2AxFHm-147" value="" style="endArrow=none;html=1;rounded=0;endFill=0;startArrow=baseDash;startFill=0;" parent="NsjN8VoXxCyJ3gS6qNYf-3" edge="1">
                    <mxGeometry width="50" height="50" relative="1" as="geometry">
                        <mxPoint y="5" as="sourcePoint"/>
                        <mxPoint x="34" y="5" as="targetPoint"/>
                    </mxGeometry>
                </mxCell>
                <mxCell id="KbBnwbsYyjUJBn2AxFHm-148" value="" style="rounded=0;whiteSpace=wrap;html=1;fillColor=#ABABAB;fontColor=#333333;strokeColor=#666666;" parent="NsjN8VoXxCyJ3gS6qNYf-3" vertex="1">
                    <mxGeometry x="33" width="28" height="10" as="geometry"/>
                </mxCell>
                <mxCell id="NsjN8VoXxCyJ3gS6qNYf-4" value="" style="group;flipV=1;" parent="1" vertex="1" connectable="0">
                    <mxGeometry x="265.5" y="115" width="63" height="10" as="geometry"/>
                </mxCell>
                <mxCell id="KbBnwbsYyjUJBn2AxFHm-126" value="" style="endArrow=baseDash;html=1;rounded=0;endFill=0;startArrow=baseDash;startFill=0;" parent="NsjN8VoXxCyJ3gS6qNYf-4" edge="1">
                    <mxGeometry width="50" height="50" relative="1" as="geometry">
                        <mxPoint y="5.180000000000007" as="sourcePoint"/>
                        <mxPoint x="63" y="5.180000000000007" as="targetPoint"/>
                    </mxGeometry>
                </mxCell>
                <mxCell id="KbBnwbsYyjUJBn2AxFHm-122" value="" style="rounded=0;whiteSpace=wrap;html=1;fillColor=#ABABAB;fontColor=#333333;strokeColor=#666666;" parent="NsjN8VoXxCyJ3gS6qNYf-4" vertex="1">
                    <mxGeometry x="16.5" width="16" height="10" as="geometry"/>
                </mxCell>
                <mxCell id="NsjN8VoXxCyJ3gS6qNYf-5" value="" style="group;flipV=1;" parent="1" vertex="1" connectable="0">
                    <mxGeometry x="265.5" y="315.78" width="63" height="10" as="geometry"/>
                </mxCell>
                <mxCell id="kqmfeLZbxrfAbbavOwya-149" value="" style="endArrow=baseDash;html=1;rounded=0;endFill=0;startArrow=baseDash;startFill=0;" parent="NsjN8VoXxCyJ3gS6qNYf-5" source="kqmfeLZbxrfAbbavOwya-151" edge="1">
                    <mxGeometry width="50" height="50" relative="1" as="geometry">
                        <mxPoint y="4.999999999999943" as="sourcePoint"/>
                        <mxPoint x="63" y="4.999999999999943" as="targetPoint"/>
                    </mxGeometry>
                </mxCell>
                <mxCell id="kqmfeLZbxrfAbbavOwya-150" value="" style="endArrow=none;html=1;rounded=0;endFill=0;startArrow=baseDash;startFill=0;" parent="NsjN8VoXxCyJ3gS6qNYf-5" target="kqmfeLZbxrfAbbavOwya-151" edge="1">
                    <mxGeometry width="50" height="50" relative="1" as="geometry">
                        <mxPoint y="4.999999999999943" as="sourcePoint"/>
                        <mxPoint x="63" y="4.999999999999943" as="targetPoint"/>
                    </mxGeometry>
                </mxCell>
                <mxCell id="kqmfeLZbxrfAbbavOwya-151" value="" style="rounded=0;whiteSpace=wrap;html=1;fillColor=#ABABAB;fontColor=#333333;strokeColor=#666666;" parent="NsjN8VoXxCyJ3gS6qNYf-5" vertex="1">
                    <mxGeometry x="45.5" width="3.5" height="10" as="geometry"/>
                </mxCell>
                <mxCell id="NsjN8VoXxCyJ3gS6qNYf-6" value="" style="group;flipV=1;" parent="1" vertex="1" connectable="0">
                    <mxGeometry x="265.5" y="365" width="63" height="10" as="geometry"/>
                </mxCell>
                <mxCell id="kqmfeLZbxrfAbbavOwya-154" value="" style="endArrow=none;html=1;rounded=0;endFill=0;startArrow=baseDash;startFill=0;" parent="NsjN8VoXxCyJ3gS6qNYf-6" source="kqmfeLZbxrfAbbavOwya-156" edge="1">
                    <mxGeometry width="50" height="50" relative="1" as="geometry">
                        <mxPoint y="5" as="sourcePoint"/>
                        <mxPoint x="63" y="5" as="targetPoint"/>
                    </mxGeometry>
                </mxCell>
                <mxCell id="kqmfeLZbxrfAbbavOwya-155" value="" style="endArrow=none;html=1;rounded=0;endFill=0;startArrow=baseDash;startFill=0;" parent="NsjN8VoXxCyJ3gS6qNYf-6" target="kqmfeLZbxrfAbbavOwya-156" edge="1">
                    <mxGeometry width="50" height="50" relative="1" as="geometry">
                        <mxPoint y="5" as="sourcePoint"/>
                        <mxPoint x="63" y="5" as="targetPoint"/>
                    </mxGeometry>
                </mxCell>
                <mxCell id="kqmfeLZbxrfAbbavOwya-156" value="" style="rounded=0;whiteSpace=wrap;html=1;fillColor=#ABABAB;fontColor=#333333;strokeColor=#666666;" parent="NsjN8VoXxCyJ3gS6qNYf-6" vertex="1">
                    <mxGeometry x="1.5" width="14" height="10" as="geometry"/>
                </mxCell>
                <mxCell id="NsjN8VoXxCyJ3gS6qNYf-9" value="" style="group" parent="1" vertex="1" connectable="0">
                    <mxGeometry x="245" y="214" width="100" height="53" as="geometry"/>
                </mxCell>
                <mxCell id="KbBnwbsYyjUJBn2AxFHm-142" value="$$\text{per graph }$$" style="text;html=1;align=center;verticalAlign=middle;whiteSpace=wrap;rounded=0;" parent="NsjN8VoXxCyJ3gS6qNYf-9" vertex="1">
                    <mxGeometry x="20" y="22" width="60" height="30" as="geometry"/>
                </mxCell>
                <mxCell id="CUuBMCauSZTbOeWWz95r-4" value="&lt;span style=&quot;color: rgb(0, 0, 0); font-family: Helvetica; font-size: 12px; font-style: normal; font-variant-ligatures: normal; font-variant-caps: normal; font-weight: 400; letter-spacing: normal; orphans: 2; text-indent: 0px; text-transform: none; widows: 2; word-spacing: 0px; -webkit-text-stroke-width: 0px; background-color: rgb(251, 251, 251); text-decoration-thickness: initial; text-decoration-style: initial; text-decoration-color: initial; float: none; display: inline !important;&quot;&gt;$$\text{communities } k_{min}, k_{max}$$&lt;/span&gt;" style="text;whiteSpace=wrap;html=1;align=center;" parent="NsjN8VoXxCyJ3gS6qNYf-9" vertex="1">
                    <mxGeometry y="-4" width="100" height="40" as="geometry"/>
                </mxCell>
                <mxCell id="NsjN8VoXxCyJ3gS6qNYf-10" value="" style="group;horizontal=1;verticalAlign=middle;align=center;" parent="1" vertex="1" connectable="0">
                    <mxGeometry x="267" y="280" width="60" height="22.82" as="geometry"/>
                </mxCell>
                <mxCell id="kqmfeLZbxrfAbbavOwya-143" value="$$\text{degree seperation}$$" style="text;html=1;align=center;verticalAlign=middle;whiteSpace=wrap;rounded=0;" parent="NsjN8VoXxCyJ3gS6qNYf-10" vertex="1">
                    <mxGeometry y="6.072738024837376" width="60" height="20.242460082791254" as="geometry"/>
                </mxCell>
                <mxCell id="kqmfeLZbxrfAbbavOwya-145" value="&amp;nbsp;$$\rho_{min}, \rho_{max}$$" style="text;html=1;align=center;verticalAlign=middle;whiteSpace=wrap;rounded=0;" parent="NsjN8VoXxCyJ3gS6qNYf-10" vertex="1">
                    <mxGeometry y="8.650277942046124" width="60" height="20.242460082791254" as="geometry"/>
                </mxCell>
                <mxCell id="NsjN8VoXxCyJ3gS6qNYf-13" value="" style="group" parent="1" vertex="1" connectable="0">
                    <mxGeometry x="270" y="330.18" width="60" height="32.26999999999998" as="geometry"/>
                </mxCell>
                <mxCell id="kqmfeLZbxrfAbbavOwya-152" value="$$\text{power law exponent}$$" style="text;html=1;align=center;verticalAlign=middle;whiteSpace=wrap;rounded=0;" parent="NsjN8VoXxCyJ3gS6qNYf-13" vertex="1">
                    <mxGeometry width="60" height="30" as="geometry"/>
                </mxCell>
                <mxCell id="kqmfeLZbxrfAbbavOwya-153" value="&amp;nbsp;$$\alpha_{min}, \alpha_{max}$$" style="text;html=1;align=center;verticalAlign=middle;whiteSpace=wrap;rounded=0;" parent="NsjN8VoXxCyJ3gS6qNYf-13" vertex="1">
                    <mxGeometry y="2.269999999999982" width="60" height="30" as="geometry"/>
                </mxCell>
                <mxCell id="C82nVLx3EcEH5GJK0T5T-23" value="" style="ellipse;whiteSpace=wrap;html=1;aspect=fixed;fillColor=#f8cecc;strokeColor=#b85450;strokeWidth=3;" parent="1" vertex="1">
                    <mxGeometry x="49" y="248.37" width="10" height="10" as="geometry"/>
                </mxCell>
                <mxCell id="C82nVLx3EcEH5GJK0T5T-24" value="" style="ellipse;whiteSpace=wrap;html=1;aspect=fixed;fillColor=#d5e8d4;strokeColor=#82b366;strokeWidth=3;" parent="1" vertex="1">
                    <mxGeometry x="82" y="248.37" width="10" height="10" as="geometry"/>
                </mxCell>
                <mxCell id="C82nVLx3EcEH5GJK0T5T-25" value="" style="ellipse;whiteSpace=wrap;html=1;aspect=fixed;fillColor=#dae8fc;strokeColor=#6c8ebf;strokeWidth=3;" parent="1" vertex="1">
                    <mxGeometry x="114" y="248.37" width="10" height="10" as="geometry"/>
                </mxCell>
                <mxCell id="C82nVLx3EcEH5GJK0T5T-26" value="" style="ellipse;whiteSpace=wrap;html=1;aspect=fixed;fillColor=#ffe6cc;strokeColor=#d79b00;strokeWidth=3;" parent="1" vertex="1">
                    <mxGeometry x="147" y="248.37" width="10" height="10" as="geometry"/>
                </mxCell>
                <mxCell id="C82nVLx3EcEH5GJK0T5T-28" value="$$\text{feature distribution clusters}$$" style="text;html=1;align=center;verticalAlign=middle;whiteSpace=wrap;rounded=0;" parent="1" vertex="1">
                    <mxGeometry x="71" y="295.78" width="60" height="30" as="geometry"/>
                </mxCell>
                <mxCell id="C82nVLx3EcEH5GJK0T5T-30" value="$$\text{degree propensity }\boldsymbol{\delta}$$" style="text;html=1;align=center;verticalAlign=middle;whiteSpace=wrap;rounded=0;" parent="1" vertex="1">
                    <mxGeometry x="73" y="220.37" width="60" height="30" as="geometry"/>
                </mxCell>
                <mxCell id="C82nVLx3EcEH5GJK0T5T-36" value="" style="ellipse;whiteSpace=wrap;html=1;aspect=fixed;fillColor=#f8cecc;strokeColor=#b85450;strokeWidth=3;" parent="1" vertex="1">
                    <mxGeometry x="39" y="62" width="10" height="10" as="geometry"/>
                </mxCell>
                <mxCell id="C82nVLx3EcEH5GJK0T5T-37" value="" style="ellipse;whiteSpace=wrap;html=1;aspect=fixed;fillColor=#d5e8d4;strokeColor=#82b366;strokeWidth=3;" parent="1" vertex="1">
                    <mxGeometry x="78" y="62" width="10" height="10" as="geometry"/>
                </mxCell>
                <mxCell id="C82nVLx3EcEH5GJK0T5T-38" value="" style="ellipse;whiteSpace=wrap;html=1;aspect=fixed;fillColor=#dae8fc;strokeColor=#6c8ebf;strokeWidth=3;" parent="1" vertex="1">
                    <mxGeometry x="116" y="62" width="10" height="10" as="geometry"/>
                </mxCell>
                <mxCell id="C82nVLx3EcEH5GJK0T5T-39" value="" style="ellipse;whiteSpace=wrap;html=1;aspect=fixed;fillColor=#ffe6cc;strokeColor=#d79b00;strokeWidth=3;" parent="1" vertex="1">
                    <mxGeometry x="155" y="62" width="10" height="10" as="geometry"/>
                </mxCell>
                <mxCell id="C82nVLx3EcEH5GJK0T5T-40" value="$$\boldsymbol{K}&amp;nbsp;&lt;br&gt;\text{ communities}$$" style="text;html=1;align=center;verticalAlign=middle;whiteSpace=wrap;rounded=0;" parent="1" vertex="1">
                    <mxGeometry x="69" y="33" width="60" height="30" as="geometry"/>
                </mxCell>
                <mxCell id="C82nVLx3EcEH5GJK0T5T-42" value="$$c_1$$" style="text;html=1;align=center;verticalAlign=middle;whiteSpace=wrap;rounded=0;" parent="1" vertex="1">
                    <mxGeometry x="2" y="51" width="60" height="30" as="geometry"/>
                </mxCell>
                <mxCell id="C82nVLx3EcEH5GJK0T5T-43" value="&lt;span style=&quot;color: rgb(0, 0, 0); font-family: Helvetica; font-size: 12px; font-style: normal; font-variant-ligatures: normal; font-variant-caps: normal; font-weight: 400; letter-spacing: normal; orphans: 2; text-align: center; text-indent: 0px; text-transform: none; widows: 2; word-spacing: 0px; -webkit-text-stroke-width: 0px; background-color: rgb(251, 251, 251); text-decoration-thickness: initial; text-decoration-style: initial; text-decoration-color: initial; float: none; display: inline !important;&quot;&gt;$$c_2$$&lt;/span&gt;" style="text;whiteSpace=wrap;html=1;" parent="1" vertex="1">
                    <mxGeometry x="60.5" y="40" width="80" height="40" as="geometry"/>
                </mxCell>
                <mxCell id="C82nVLx3EcEH5GJK0T5T-44" value="&lt;span style=&quot;color: rgb(0, 0, 0); font-family: Helvetica; font-size: 12px; font-style: normal; font-variant-ligatures: normal; font-variant-caps: normal; font-weight: 400; letter-spacing: normal; orphans: 2; text-align: center; text-indent: 0px; text-transform: none; widows: 2; word-spacing: 0px; -webkit-text-stroke-width: 0px; background-color: rgb(251, 251, 251); text-decoration-thickness: initial; text-decoration-style: initial; text-decoration-color: initial; float: none; display: inline !important;&quot;&gt;$$c_3$$&lt;/span&gt;" style="text;whiteSpace=wrap;html=1;" parent="1" vertex="1">
                    <mxGeometry x="99" y="40" width="80" height="40" as="geometry"/>
                </mxCell>
                <mxCell id="C82nVLx3EcEH5GJK0T5T-45" value="&lt;span style=&quot;color: rgb(0, 0, 0); font-family: Helvetica; font-size: 12px; font-style: normal; font-variant-ligatures: normal; font-variant-caps: normal; font-weight: 400; letter-spacing: normal; orphans: 2; text-align: center; text-indent: 0px; text-transform: none; widows: 2; word-spacing: 0px; -webkit-text-stroke-width: 0px; background-color: rgb(251, 251, 251); text-decoration-thickness: initial; text-decoration-style: initial; text-decoration-color: initial; float: none; display: inline !important;&quot;&gt;$$c_4$$&lt;/span&gt;" style="text;whiteSpace=wrap;html=1;" parent="1" vertex="1">
                    <mxGeometry x="138" y="40" width="80" height="40" as="geometry"/>
                </mxCell>
                <mxCell id="KYuE0DD9sM46bIQEkPxD-22" value="" style="rounded=1;whiteSpace=wrap;html=1;fillColor=#EAFFDE;strokeColor=#82b366;opacity=50;absoluteArcSize=1;" parent="1" vertex="1">
                    <mxGeometry x="415.08" y="26" width="543.5" height="357" as="geometry"/>
                </mxCell>
                <mxCell id="CUuBMCauSZTbOeWWz95r-12" value="" style="rounded=1;whiteSpace=wrap;html=1;fillColor=#EAFFDE;strokeColor=#82b366;absoluteArcSize=1;" parent="1" vertex="1">
                    <mxGeometry x="406.45" y="18" width="543.5" height="357" as="geometry"/>
                </mxCell>
                <mxCell id="KbBnwbsYyjUJBn2AxFHm-3" value="" style="rounded=1;whiteSpace=wrap;html=1;fillColor=#d5e8d4;strokeColor=#82b366;absoluteArcSize=1;" parent="1" vertex="1">
                    <mxGeometry x="397.57" y="10" width="543.5" height="357" as="geometry"/>
                </mxCell>
                <mxCell id="KYuE0DD9sM46bIQEkPxD-20" value="" style="rounded=1;whiteSpace=wrap;html=1;fillColor=#eeeeee;absoluteArcSize=1;strokeColor=#36393d;" parent="1" vertex="1">
                    <mxGeometry x="406.82" y="185" width="527" height="174" as="geometry"/>
                </mxCell>
                <mxCell id="92" value="&lt;span style=&quot;color: rgb(0, 0, 0); font-family: Helvetica; font-style: normal; font-variant-ligatures: normal; font-variant-caps: normal; font-weight: 400; letter-spacing: normal; orphans: 2; text-align: center; text-indent: 0px; text-transform: none; widows: 2; word-spacing: 0px; -webkit-text-stroke-width: 0px; background-color: rgb(251, 251, 251); text-decoration-thickness: initial; text-decoration-style: initial; text-decoration-color: initial; float: none; display: inline !important;&quot;&gt;$$\dots$$&lt;/span&gt;" style="text;whiteSpace=wrap;html=1;rotation=30;fontSize=18;" vertex="1" parent="1">
                    <mxGeometry x="976.54" y="349.54" width="16" height="2.77" as="geometry"/>
                </mxCell>
                <mxCell id="CUuBMCauSZTbOeWWz95r-15" value="&lt;span style=&quot;color: rgb(0, 0, 0); font-family: Helvetica; font-size: 12px; font-style: normal; font-variant-ligatures: normal; font-variant-caps: normal; font-weight: 400; letter-spacing: normal; orphans: 2; text-align: center; text-indent: 0px; text-transform: none; widows: 2; word-spacing: 0px; -webkit-text-stroke-width: 0px; background-color: rgb(251, 251, 251); text-decoration-thickness: initial; text-decoration-style: initial; text-decoration-color: initial; float: none; display: inline !important;&quot;&gt;$$ \color{red}g$$&lt;/span&gt;" style="text;whiteSpace=wrap;html=1;rotation=0;" parent="1" vertex="1">
                    <mxGeometry x="971" y="348" width="7" height="40" as="geometry"/>
                </mxCell>
                <mxCell id="KYuE0DD9sM46bIQEkPxD-19" value="" style="rounded=1;whiteSpace=wrap;html=1;fillColor=#eeeeee;absoluteArcSize=1;strokeColor=#36393d;" parent="1" vertex="1">
                    <mxGeometry x="407" y="97" width="527" height="80" as="geometry"/>
                </mxCell>
                <mxCell id="KYuE0DD9sM46bIQEkPxD-17" value="" style="rounded=1;whiteSpace=wrap;html=1;fillColor=#eeeeee;absoluteArcSize=1;strokeColor=#36393d;" parent="1" vertex="1">
                    <mxGeometry x="407" y="65" width="527" height="24" as="geometry"/>
                </mxCell>
                <mxCell id="KYuE0DD9sM46bIQEkPxD-16" value="" style="rounded=1;whiteSpace=wrap;html=1;fillColor=#eeeeee;absoluteArcSize=1;strokeColor=#36393d;" parent="1" vertex="1">
                    <mxGeometry x="407" y="34" width="527" height="24" as="geometry"/>
                </mxCell>
                <mxCell id="kqmfeLZbxrfAbbavOwya-162" value="" style="endArrow=none;html=1;rounded=0;exitX=0.526;exitY=0.593;exitDx=0;exitDy=0;exitPerimeter=0;strokeColor=#424242;" parent="1" source="kqmfeLZbxrfAbbavOwya-160" target="kqmfeLZbxrfAbbavOwya-159" edge="1">
                    <mxGeometry width="50" height="50" relative="1" as="geometry">
                        <mxPoint x="662" y="273" as="sourcePoint"/>
                        <mxPoint x="646" y="265" as="targetPoint"/>
                    </mxGeometry>
                </mxCell>
                <mxCell id="kqmfeLZbxrfAbbavOwya-163" value="" style="endArrow=none;html=1;rounded=0;strokeColor=#424242;" parent="1" source="kqmfeLZbxrfAbbavOwya-158" edge="1">
                    <mxGeometry width="50" height="50" relative="1" as="geometry">
                        <mxPoint x="689" y="273" as="sourcePoint"/>
                        <mxPoint x="679.5952183336913" y="259.6566248458255" as="targetPoint"/>
                    </mxGeometry>
                </mxCell>
                <mxCell id="kqmfeLZbxrfAbbavOwya-164" value="" style="endArrow=none;html=1;rounded=0;strokeColor=#424242;exitX=0.573;exitY=0.386;exitDx=0;exitDy=0;exitPerimeter=0;entryX=0.481;entryY=0.691;entryDx=0;entryDy=0;entryPerimeter=0;" parent="1" source="kqmfeLZbxrfAbbavOwya-161" target="kqmfeLZbxrfAbbavOwya-158" edge="1">
                    <mxGeometry width="50" height="50" relative="1" as="geometry">
                        <mxPoint x="691" y="244" as="sourcePoint"/>
                        <mxPoint x="688" y="270" as="targetPoint"/>
                    </mxGeometry>
                </mxCell>
                <mxCell id="kqmfeLZbxrfAbbavOwya-165" value="" style="endArrow=none;html=1;rounded=0;strokeColor=#424242;exitX=0.595;exitY=0.331;exitDx=0;exitDy=0;exitPerimeter=0;entryX=1;entryY=1;entryDx=0;entryDy=0;" parent="1" source="kqmfeLZbxrfAbbavOwya-157" target="kqmfeLZbxrfAbbavOwya-158" edge="1">
                    <mxGeometry width="50" height="50" relative="1" as="geometry">
                        <mxPoint x="664" y="226" as="sourcePoint"/>
                        <mxPoint x="691" y="241" as="targetPoint"/>
                    </mxGeometry>
                </mxCell>
                <mxCell id="kqmfeLZbxrfAbbavOwya-166" value="" style="endArrow=none;html=1;rounded=0;strokeColor=#424242;exitX=0;exitY=0;exitDx=0;exitDy=0;entryX=1;entryY=1;entryDx=0;entryDy=0;" parent="1" source="kqmfeLZbxrfAbbavOwya-157" target="kqmfeLZbxrfAbbavOwya-161" edge="1">
                    <mxGeometry width="50" height="50" relative="1" as="geometry">
                        <mxPoint x="637" y="247" as="sourcePoint"/>
                        <mxPoint x="690" y="243" as="targetPoint"/>
                    </mxGeometry>
                </mxCell>
                <mxCell id="CUuBMCauSZTbOeWWz95r-7" value="$$\textbf{1) } \text{Sample family }\rightarrow (h, d, n, k, \rho, \alpha)$$" style="text;html=1;align=left;verticalAlign=middle;whiteSpace=wrap;rounded=0;" parent="1" vertex="1">
                    <mxGeometry x="417" y="32" width="60" height="30" as="geometry"/>
                </mxCell>
                <mxCell id="CUuBMCauSZTbOeWWz95r-23" value="$$\textbf{2) } \text{Select } k \text{ communities} \rightarrow \mathcal{C}=\{c_1,\dots,c_k\}$$" style="text;html=1;align=left;verticalAlign=middle;whiteSpace=wrap;rounded=0;" parent="1" vertex="1">
                    <mxGeometry x="417" y="63" width="60" height="30" as="geometry"/>
                </mxCell>
                <mxCell id="CUuBMCauSZTbOeWWz95r-59" value="" style="group;movable=1;resizable=1;rotatable=1;deletable=1;editable=1;locked=0;connectable=1;" parent="1" vertex="1" connectable="0">
                    <mxGeometry x="648" y="107.18" width="50.91" height="60" as="geometry"/>
                </mxCell>
                <mxCell id="CUuBMCauSZTbOeWWz95r-60" value="$$\boldsymbol{\widetilde{P}}$$" style="text;html=1;align=center;verticalAlign=middle;whiteSpace=wrap;rounded=0;movable=1;resizable=1;rotatable=1;deletable=1;editable=1;locked=0;connectable=1;fontSize=10;" parent="CUuBMCauSZTbOeWWz95r-59" vertex="1">
                    <mxGeometry x="-2.9089285714285698" y="-3" width="40.90982142857143" height="9.09090909090909" as="geometry"/>
                </mxCell>
                <mxCell id="CUuBMCauSZTbOeWWz95r-93" value="$$\xrightarrow{\mathcal{C}}$$" style="text;html=1;align=center;verticalAlign=middle;whiteSpace=wrap;rounded=0;fontSize=16;" parent="1" vertex="1">
                    <mxGeometry x="676.91" y="124.18" width="60" height="30" as="geometry"/>
                </mxCell>
                <mxCell id="CUuBMCauSZTbOeWWz95r-127" value="$$\boldsymbol{P}$$" style="text;html=1;align=center;verticalAlign=middle;whiteSpace=wrap;rounded=0;movable=1;resizable=1;rotatable=1;deletable=1;editable=1;locked=0;connectable=1;fontSize=10;" parent="1" vertex="1">
                    <mxGeometry x="824.6410714285714" y="107.09" width="40.90982142857143" height="9.09090909090909" as="geometry"/>
                </mxCell>
                <mxCell id="CUuBMCauSZTbOeWWz95r-133" value="$$\xrightarrow{\mathcal{h, d, n}}$$" style="text;html=1;align=center;verticalAlign=middle;whiteSpace=wrap;rounded=0;fontSize=16;" parent="1" vertex="1">
                    <mxGeometry x="762.64" y="126.18" width="60" height="30" as="geometry"/>
                </mxCell>
                <mxCell id="CUuBMCauSZTbOeWWz95r-134" value="" style="group" parent="1" vertex="1" connectable="0">
                    <mxGeometry x="717.0000405844156" y="121.86909090909091" width="48.63719155844149" height="46.818530844155845" as="geometry"/>
                </mxCell>
                <mxCell id="CUuBMCauSZTbOeWWz95r-96" value="" style="shape=table;startSize=0;container=1;collapsible=0;childLayout=tableLayout;fontSize=16;movable=1;resizable=1;rotatable=1;deletable=1;editable=1;locked=0;connectable=1;strokeWidth=2;" parent="CUuBMCauSZTbOeWWz95r-134" vertex="1">
                    <mxGeometry x="13.269959415584367" y="5.910909090909087" width="32.64" height="31.4" as="geometry"/>
                </mxCell>
                <mxCell id="CUuBMCauSZTbOeWWz95r-97" value="" style="shape=tableRow;horizontal=0;startSize=0;swimlaneHead=0;swimlaneBody=0;strokeColor=inherit;top=0;left=0;bottom=0;right=0;collapsible=0;dropTarget=0;fillColor=none;points=[[0,0.5],[1,0.5]];portConstraint=eastwest;fontSize=16;movable=1;resizable=1;rotatable=1;deletable=1;editable=1;locked=0;connectable=1;" parent="CUuBMCauSZTbOeWWz95r-96" vertex="1">
                    <mxGeometry width="32.64" height="11" as="geometry"/>
                </mxCell>
                <mxCell id="CUuBMCauSZTbOeWWz95r-98" value="" style="shape=partialRectangle;html=1;whiteSpace=wrap;connectable=1;strokeColor=inherit;overflow=hidden;fillColor=#4D4D4D;top=0;left=0;bottom=0;right=0;pointerEvents=1;fontSize=16;movable=1;resizable=1;rotatable=1;deletable=1;editable=1;locked=0;" parent="CUuBMCauSZTbOeWWz95r-97" vertex="1">
                    <mxGeometry width="11" height="11" as="geometry">
                        <mxRectangle width="11" height="11" as="alternateBounds"/>
                    </mxGeometry>
                </mxCell>
                <mxCell id="CUuBMCauSZTbOeWWz95r-99" value="" style="shape=partialRectangle;html=1;whiteSpace=wrap;connectable=1;strokeColor=inherit;overflow=hidden;fillColor=#999999;top=0;left=0;bottom=0;right=0;pointerEvents=1;fontSize=16;movable=1;resizable=1;rotatable=1;deletable=1;editable=1;locked=0;" parent="CUuBMCauSZTbOeWWz95r-97" vertex="1">
                    <mxGeometry x="11" width="11" height="11" as="geometry">
                        <mxRectangle width="11" height="11" as="alternateBounds"/>
                    </mxGeometry>
                </mxCell>
                <mxCell id="CUuBMCauSZTbOeWWz95r-100" value="" style="shape=partialRectangle;html=1;whiteSpace=wrap;connectable=1;strokeColor=inherit;overflow=hidden;fillColor=#696969;top=0;left=0;bottom=0;right=0;pointerEvents=1;fontSize=16;movable=1;resizable=1;rotatable=1;deletable=1;editable=1;locked=0;" parent="CUuBMCauSZTbOeWWz95r-97" vertex="1">
                    <mxGeometry x="22" width="11" height="11" as="geometry">
                        <mxRectangle width="11" height="11" as="alternateBounds"/>
                    </mxGeometry>
                </mxCell>
                <mxCell id="CUuBMCauSZTbOeWWz95r-102" value="" style="shape=tableRow;horizontal=0;startSize=0;swimlaneHead=0;swimlaneBody=0;strokeColor=inherit;top=0;left=0;bottom=0;right=0;collapsible=0;dropTarget=0;fillColor=none;points=[[0,0.5],[1,0.5]];portConstraint=eastwest;fontSize=16;movable=1;resizable=1;rotatable=1;deletable=1;editable=1;locked=0;connectable=1;" parent="CUuBMCauSZTbOeWWz95r-96" vertex="1">
                    <mxGeometry y="11" width="32.64" height="11" as="geometry"/>
                </mxCell>
                <mxCell id="CUuBMCauSZTbOeWWz95r-103" value="" style="shape=partialRectangle;html=1;whiteSpace=wrap;connectable=1;strokeColor=inherit;overflow=hidden;fillColor=#999999;top=0;left=0;bottom=0;right=0;pointerEvents=1;fontSize=16;movable=1;resizable=1;rotatable=1;deletable=1;editable=1;locked=0;" parent="CUuBMCauSZTbOeWWz95r-102" vertex="1">
                    <mxGeometry width="11" height="11" as="geometry">
                        <mxRectangle width="11" height="11" as="alternateBounds"/>
                    </mxGeometry>
                </mxCell>
                <mxCell id="CUuBMCauSZTbOeWWz95r-104" value="" style="shape=partialRectangle;html=1;whiteSpace=wrap;connectable=1;strokeColor=inherit;overflow=hidden;fillColor=#CCCCCC;top=0;left=0;bottom=0;right=0;pointerEvents=1;fontSize=16;movable=1;resizable=1;rotatable=1;deletable=1;editable=1;locked=0;" parent="CUuBMCauSZTbOeWWz95r-102" vertex="1">
                    <mxGeometry x="11" width="11" height="11" as="geometry">
                        <mxRectangle width="11" height="11" as="alternateBounds"/>
                    </mxGeometry>
                </mxCell>
                <mxCell id="CUuBMCauSZTbOeWWz95r-105" value="" style="shape=partialRectangle;html=1;whiteSpace=wrap;connectable=1;strokeColor=inherit;overflow=hidden;fillColor=#B3B3B3;top=0;left=0;bottom=0;right=0;pointerEvents=1;fontSize=16;movable=1;resizable=1;rotatable=1;deletable=1;editable=1;locked=0;" parent="CUuBMCauSZTbOeWWz95r-102" vertex="1">
                    <mxGeometry x="22" width="11" height="11" as="geometry">
                        <mxRectangle width="11" height="11" as="alternateBounds"/>
                    </mxGeometry>
                </mxCell>
                <mxCell id="CUuBMCauSZTbOeWWz95r-107" value="" style="shape=tableRow;horizontal=0;startSize=0;swimlaneHead=0;swimlaneBody=0;strokeColor=inherit;top=0;left=0;bottom=0;right=0;collapsible=0;dropTarget=0;fillColor=none;points=[[0,0.5],[1,0.5]];portConstraint=eastwest;fontSize=16;movable=1;resizable=1;rotatable=1;deletable=1;editable=1;locked=0;connectable=1;" parent="CUuBMCauSZTbOeWWz95r-96" vertex="1">
                    <mxGeometry y="22" width="32.64" height="9" as="geometry"/>
                </mxCell>
                <mxCell id="CUuBMCauSZTbOeWWz95r-108" value="" style="shape=partialRectangle;html=1;whiteSpace=wrap;connectable=1;strokeColor=inherit;overflow=hidden;fillColor=#696969;top=0;left=0;bottom=0;right=0;pointerEvents=1;fontSize=16;movable=1;resizable=1;rotatable=1;deletable=1;editable=1;locked=0;" parent="CUuBMCauSZTbOeWWz95r-107" vertex="1">
                    <mxGeometry width="11" height="9" as="geometry">
                        <mxRectangle width="11" height="9" as="alternateBounds"/>
                    </mxGeometry>
                </mxCell>
                <mxCell id="CUuBMCauSZTbOeWWz95r-109" value="" style="shape=partialRectangle;html=1;whiteSpace=wrap;connectable=1;strokeColor=inherit;overflow=hidden;fillColor=#b3b3b3;top=0;left=0;bottom=0;right=0;pointerEvents=1;fontSize=16;movable=1;resizable=1;rotatable=1;deletable=1;editable=1;locked=0;" parent="CUuBMCauSZTbOeWWz95r-107" vertex="1">
                    <mxGeometry x="11" width="11" height="9" as="geometry">
                        <mxRectangle width="11" height="9" as="alternateBounds"/>
                    </mxGeometry>
                </mxCell>
                <mxCell id="CUuBMCauSZTbOeWWz95r-110" value="" style="shape=partialRectangle;html=1;whiteSpace=wrap;connectable=1;strokeColor=inherit;overflow=hidden;fillColor=#000000;top=0;left=0;bottom=0;right=0;pointerEvents=1;fontSize=16;movable=1;resizable=1;rotatable=1;deletable=1;editable=1;locked=0;" parent="CUuBMCauSZTbOeWWz95r-107" vertex="1">
                    <mxGeometry x="22" width="11" height="9" as="geometry">
                        <mxRectangle width="11" height="9" as="alternateBounds"/>
                    </mxGeometry>
                </mxCell>
                <mxCell id="CUuBMCauSZTbOeWWz95r-117" value="" style="group;movable=1;resizable=1;rotatable=1;deletable=1;editable=1;locked=0;connectable=1;" parent="CUuBMCauSZTbOeWWz95r-134" vertex="1" connectable="0">
                    <mxGeometry x="6.545584415584358" width="39.09160714285714" height="4.545454545454545" as="geometry"/>
                </mxCell>
                <mxCell id="CUuBMCauSZTbOeWWz95r-118" value="" style="ellipse;whiteSpace=wrap;html=1;aspect=fixed;fillColor=#f8cecc;strokeColor=#b85450;movable=1;resizable=1;rotatable=1;deletable=1;editable=1;locked=0;connectable=1;strokeWidth=2;" parent="CUuBMCauSZTbOeWWz95r-117" vertex="1">
                    <mxGeometry x="9" y="-0.909090909090909" width="4.54543566906057" height="4.54543566906057" as="geometry"/>
                </mxCell>
                <mxCell id="CUuBMCauSZTbOeWWz95r-119" value="" style="ellipse;whiteSpace=wrap;html=1;aspect=fixed;fillColor=#d5e8d4;strokeColor=#82b366;movable=1;resizable=1;rotatable=1;deletable=1;editable=1;locked=0;connectable=1;strokeWidth=2;" parent="CUuBMCauSZTbOeWWz95r-117" vertex="1">
                    <mxGeometry x="20.363839285714285" y="-0.909090909090909" width="4.54543566906057" height="4.54543566906057" as="geometry"/>
                </mxCell>
                <mxCell id="CUuBMCauSZTbOeWWz95r-120" value="" style="ellipse;whiteSpace=wrap;html=1;aspect=fixed;fillColor=#ffe6cc;strokeColor=#d79b00;movable=1;resizable=1;rotatable=1;deletable=1;editable=1;locked=0;connectable=1;strokeWidth=2;" parent="CUuBMCauSZTbOeWWz95r-117" vertex="1">
                    <mxGeometry x="32.182232142857146" y="-0.909090909090909" width="4.54543566906057" height="4.54543566906057" as="geometry"/>
                </mxCell>
                <mxCell id="CUuBMCauSZTbOeWWz95r-122" value="" style="group;flipV=1;flipH=0;rotation=90;movable=1;resizable=1;rotatable=1;deletable=1;editable=1;locked=0;connectable=1;" parent="CUuBMCauSZTbOeWWz95r-134" vertex="1" connectable="0">
                    <mxGeometry x="-11.273076298701312" y="25" width="39.09160714285714" height="4.545454545454545" as="geometry"/>
                </mxCell>
                <mxCell id="CUuBMCauSZTbOeWWz95r-123" value="" style="ellipse;whiteSpace=wrap;html=1;aspect=fixed;fillColor=#f8cecc;strokeColor=#b85450;rotation=90;movable=1;resizable=1;rotatable=1;deletable=1;editable=1;locked=0;connectable=1;strokeWidth=2;" parent="CUuBMCauSZTbOeWWz95r-122" vertex="1">
                    <mxGeometry x="17.273035714285715" y="-17.27272727272727" width="4.54543566906057" height="4.54543566906057" as="geometry"/>
                </mxCell>
                <mxCell id="CUuBMCauSZTbOeWWz95r-124" value="" style="ellipse;whiteSpace=wrap;html=1;aspect=fixed;fillColor=#d5e8d4;strokeColor=#82b366;rotation=90;movable=1;resizable=1;rotatable=1;deletable=1;editable=1;locked=0;connectable=1;strokeWidth=2;" parent="CUuBMCauSZTbOeWWz95r-122" vertex="1">
                    <mxGeometry x="17.273035714285715" y="-5.909090909090908" width="4.54543566906057" height="4.54543566906057" as="geometry"/>
                </mxCell>
                <mxCell id="CUuBMCauSZTbOeWWz95r-126" value="" style="ellipse;whiteSpace=wrap;html=1;aspect=fixed;fillColor=#ffe6cc;strokeColor=#d79b00;rotation=90;movable=1;resizable=1;rotatable=1;deletable=1;editable=1;locked=0;connectable=1;strokeWidth=2;" parent="CUuBMCauSZTbOeWWz95r-122" vertex="1">
                    <mxGeometry x="17.273035714285715" y="5.27272727272727" width="4.54543566906057" height="4.54543566906057" as="geometry"/>
                </mxCell>
                <mxCell id="CUuBMCauSZTbOeWWz95r-135" value="" style="group" parent="1" vertex="1" connectable="0">
                    <mxGeometry x="819.6400405844156" y="124.17909090909092" width="48.63719155844149" height="46.818530844155845" as="geometry"/>
                </mxCell>
                <mxCell id="CUuBMCauSZTbOeWWz95r-136" value="" style="shape=table;startSize=0;container=1;collapsible=0;childLayout=tableLayout;fontSize=16;movable=1;resizable=1;rotatable=1;deletable=1;editable=1;locked=0;connectable=1;fillColor=#ffcccc;gradientColor=none;strokeWidth=2;" parent="CUuBMCauSZTbOeWWz95r-135" vertex="1">
                    <mxGeometry x="7.269959415584367" y="3.9109090909090867" width="32.64" height="31.4" as="geometry"/>
                </mxCell>
                <mxCell id="CUuBMCauSZTbOeWWz95r-137" value="" style="shape=tableRow;horizontal=0;startSize=0;swimlaneHead=0;swimlaneBody=0;strokeColor=inherit;top=0;left=0;bottom=0;right=0;collapsible=0;dropTarget=0;fillColor=none;points=[[0,0.5],[1,0.5]];portConstraint=eastwest;fontSize=16;movable=1;resizable=1;rotatable=1;deletable=1;editable=1;locked=0;connectable=1;" parent="CUuBMCauSZTbOeWWz95r-136" vertex="1">
                    <mxGeometry width="32.64" height="11" as="geometry"/>
                </mxCell>
                <mxCell id="CUuBMCauSZTbOeWWz95r-138" value="" style="shape=partialRectangle;html=1;whiteSpace=wrap;connectable=1;strokeColor=inherit;overflow=hidden;fillColor=#FF6666;top=0;left=0;bottom=0;right=0;pointerEvents=1;fontSize=16;movable=1;resizable=1;rotatable=1;deletable=1;editable=1;locked=0;" parent="CUuBMCauSZTbOeWWz95r-137" vertex="1">
                    <mxGeometry width="11" height="11" as="geometry">
                        <mxRectangle width="11" height="11" as="alternateBounds"/>
                    </mxGeometry>
                </mxCell>
                <mxCell id="CUuBMCauSZTbOeWWz95r-139" value="" style="shape=partialRectangle;html=1;whiteSpace=wrap;connectable=1;strokeColor=inherit;overflow=hidden;fillColor=#FFCCCC;top=0;left=0;bottom=0;right=0;pointerEvents=1;fontSize=16;movable=1;resizable=1;rotatable=1;deletable=1;editable=1;locked=0;" parent="CUuBMCauSZTbOeWWz95r-137" vertex="1">
                    <mxGeometry x="11" width="11" height="11" as="geometry">
                        <mxRectangle width="11" height="11" as="alternateBounds"/>
                    </mxGeometry>
                </mxCell>
                <mxCell id="CUuBMCauSZTbOeWWz95r-140" value="" style="shape=partialRectangle;html=1;whiteSpace=wrap;connectable=1;strokeColor=inherit;overflow=hidden;fillColor=#EDBEBE;top=0;left=0;bottom=0;right=0;pointerEvents=1;fontSize=16;movable=1;resizable=1;rotatable=1;deletable=1;editable=1;locked=0;" parent="CUuBMCauSZTbOeWWz95r-137" vertex="1">
                    <mxGeometry x="22" width="11" height="11" as="geometry">
                        <mxRectangle width="11" height="11" as="alternateBounds"/>
                    </mxGeometry>
                </mxCell>
                <mxCell id="CUuBMCauSZTbOeWWz95r-141" value="" style="shape=tableRow;horizontal=0;startSize=0;swimlaneHead=0;swimlaneBody=0;strokeColor=inherit;top=0;left=0;bottom=0;right=0;collapsible=0;dropTarget=0;fillColor=none;points=[[0,0.5],[1,0.5]];portConstraint=eastwest;fontSize=16;movable=1;resizable=1;rotatable=1;deletable=1;editable=1;locked=0;connectable=1;" parent="CUuBMCauSZTbOeWWz95r-136" vertex="1">
                    <mxGeometry y="11" width="32.64" height="11" as="geometry"/>
                </mxCell>
                <mxCell id="CUuBMCauSZTbOeWWz95r-142" value="" style="shape=partialRectangle;html=1;whiteSpace=wrap;connectable=1;strokeColor=inherit;overflow=hidden;fillColor=#ffcccc;top=0;left=0;bottom=0;right=0;pointerEvents=1;fontSize=16;movable=1;resizable=1;rotatable=1;deletable=1;editable=1;locked=0;" parent="CUuBMCauSZTbOeWWz95r-141" vertex="1">
                    <mxGeometry width="11" height="11" as="geometry">
                        <mxRectangle width="11" height="11" as="alternateBounds"/>
                    </mxGeometry>
                </mxCell>
                <mxCell id="CUuBMCauSZTbOeWWz95r-143" value="" style="shape=partialRectangle;html=1;whiteSpace=wrap;connectable=1;strokeColor=inherit;overflow=hidden;fillColor=#FF9999;top=0;left=0;bottom=0;right=0;pointerEvents=1;fontSize=16;movable=1;resizable=1;rotatable=1;deletable=1;editable=1;locked=0;" parent="CUuBMCauSZTbOeWWz95r-141" vertex="1">
                    <mxGeometry x="11" width="11" height="11" as="geometry">
                        <mxRectangle width="11" height="11" as="alternateBounds"/>
                    </mxGeometry>
                </mxCell>
                <mxCell id="CUuBMCauSZTbOeWWz95r-144" value="" style="shape=partialRectangle;html=1;whiteSpace=wrap;connectable=1;strokeColor=inherit;overflow=hidden;fillColor=#FCCACA;top=0;left=0;bottom=0;right=0;pointerEvents=1;fontSize=16;movable=1;resizable=1;rotatable=1;deletable=1;editable=1;locked=0;" parent="CUuBMCauSZTbOeWWz95r-141" vertex="1">
                    <mxGeometry x="22" width="11" height="11" as="geometry">
                        <mxRectangle width="11" height="11" as="alternateBounds"/>
                    </mxGeometry>
                </mxCell>
                <mxCell id="CUuBMCauSZTbOeWWz95r-145" value="" style="shape=tableRow;horizontal=0;startSize=0;swimlaneHead=0;swimlaneBody=0;strokeColor=inherit;top=0;left=0;bottom=0;right=0;collapsible=0;dropTarget=0;fillColor=none;points=[[0,0.5],[1,0.5]];portConstraint=eastwest;fontSize=16;movable=1;resizable=1;rotatable=1;deletable=1;editable=1;locked=0;connectable=1;" parent="CUuBMCauSZTbOeWWz95r-136" vertex="1">
                    <mxGeometry y="22" width="32.64" height="9" as="geometry"/>
                </mxCell>
                <mxCell id="CUuBMCauSZTbOeWWz95r-146" value="" style="shape=partialRectangle;html=1;whiteSpace=wrap;connectable=1;strokeColor=inherit;overflow=hidden;fillColor=#edbebe;top=0;left=0;bottom=0;right=0;pointerEvents=1;fontSize=16;movable=1;resizable=1;rotatable=1;deletable=1;editable=1;locked=0;gradientColor=none;" parent="CUuBMCauSZTbOeWWz95r-145" vertex="1">
                    <mxGeometry width="11" height="9" as="geometry">
                        <mxRectangle width="11" height="9" as="alternateBounds"/>
                    </mxGeometry>
                </mxCell>
                <mxCell id="CUuBMCauSZTbOeWWz95r-147" value="" style="shape=partialRectangle;html=1;whiteSpace=wrap;connectable=1;strokeColor=inherit;overflow=hidden;fillColor=#fccaca;top=0;left=0;bottom=0;right=0;pointerEvents=1;fontSize=16;movable=1;resizable=1;rotatable=1;deletable=1;editable=1;locked=0;gradientColor=none;" parent="CUuBMCauSZTbOeWWz95r-145" vertex="1">
                    <mxGeometry x="11" width="11" height="9" as="geometry">
                        <mxRectangle width="11" height="9" as="alternateBounds"/>
                    </mxGeometry>
                </mxCell>
                <mxCell id="CUuBMCauSZTbOeWWz95r-148" value="" style="shape=partialRectangle;html=1;whiteSpace=wrap;connectable=1;strokeColor=inherit;overflow=hidden;fillColor=#D15454;top=0;left=0;bottom=0;right=0;pointerEvents=1;fontSize=16;movable=1;resizable=1;rotatable=1;deletable=1;editable=1;locked=0;" parent="CUuBMCauSZTbOeWWz95r-145" vertex="1">
                    <mxGeometry x="22" width="11" height="9" as="geometry">
                        <mxRectangle width="11" height="9" as="alternateBounds"/>
                    </mxGeometry>
                </mxCell>
                <mxCell id="CUuBMCauSZTbOeWWz95r-149" value="" style="group;movable=1;resizable=1;rotatable=1;deletable=1;editable=1;locked=0;connectable=1;" parent="CUuBMCauSZTbOeWWz95r-135" vertex="1" connectable="0">
                    <mxGeometry x="9.545584415584358" width="39.09160714285714" height="4.545454545454545" as="geometry"/>
                </mxCell>
                <mxCell id="CUuBMCauSZTbOeWWz95r-150" value="" style="ellipse;whiteSpace=wrap;html=1;aspect=fixed;fillColor=#f8cecc;strokeColor=#b85450;movable=1;resizable=1;rotatable=1;deletable=1;editable=1;locked=0;connectable=1;strokeWidth=2;" parent="CUuBMCauSZTbOeWWz95r-149" vertex="1">
                    <mxGeometry y="-2.909090909090909" width="4.54543566906057" height="4.54543566906057" as="geometry"/>
                </mxCell>
                <mxCell id="CUuBMCauSZTbOeWWz95r-151" value="" style="ellipse;whiteSpace=wrap;html=1;aspect=fixed;fillColor=#d5e8d4;strokeColor=#82b366;movable=1;resizable=1;rotatable=1;deletable=1;editable=1;locked=0;connectable=1;strokeWidth=2;" parent="CUuBMCauSZTbOeWWz95r-149" vertex="1">
                    <mxGeometry x="11.363839285714286" y="-2.909090909090909" width="4.54543566906057" height="4.54543566906057" as="geometry"/>
                </mxCell>
                <mxCell id="CUuBMCauSZTbOeWWz95r-152" value="" style="ellipse;whiteSpace=wrap;html=1;aspect=fixed;fillColor=#ffe6cc;strokeColor=#d79b00;movable=1;resizable=1;rotatable=1;deletable=1;editable=1;locked=0;connectable=1;strokeWidth=2;" parent="CUuBMCauSZTbOeWWz95r-149" vertex="1">
                    <mxGeometry x="23.182232142857146" y="-2.909090909090909" width="4.54543566906057" height="4.54543566906057" as="geometry"/>
                </mxCell>
                <mxCell id="CUuBMCauSZTbOeWWz95r-153" value="" style="group;flipV=1;flipH=0;rotation=90;movable=1;resizable=1;rotatable=1;deletable=1;editable=1;locked=0;connectable=1;" parent="CUuBMCauSZTbOeWWz95r-135" vertex="1" connectable="0">
                    <mxGeometry x="-17.273076298701312" y="23" width="39.09160714285714" height="4.545454545454545" as="geometry"/>
                </mxCell>
                <mxCell id="CUuBMCauSZTbOeWWz95r-154" value="" style="ellipse;whiteSpace=wrap;html=1;aspect=fixed;fillColor=#f8cecc;strokeColor=#b85450;rotation=90;movable=1;resizable=1;rotatable=1;deletable=1;editable=1;locked=0;connectable=1;strokeWidth=2;" parent="CUuBMCauSZTbOeWWz95r-153" vertex="1">
                    <mxGeometry x="17.273035714285715" y="-17.27272727272727" width="4.54543566906057" height="4.54543566906057" as="geometry"/>
                </mxCell>
                <mxCell id="CUuBMCauSZTbOeWWz95r-155" value="" style="ellipse;whiteSpace=wrap;html=1;aspect=fixed;fillColor=#d5e8d4;strokeColor=#82b366;rotation=90;movable=1;resizable=1;rotatable=1;deletable=1;editable=1;locked=0;connectable=1;strokeWidth=2;" parent="CUuBMCauSZTbOeWWz95r-153" vertex="1">
                    <mxGeometry x="17.273035714285715" y="-5.909090909090908" width="4.54543566906057" height="4.54543566906057" as="geometry"/>
                </mxCell>
                <mxCell id="CUuBMCauSZTbOeWWz95r-156" value="" style="ellipse;whiteSpace=wrap;html=1;aspect=fixed;fillColor=#ffe6cc;strokeColor=#d79b00;rotation=90;movable=1;resizable=1;rotatable=1;deletable=1;editable=1;locked=0;connectable=1;strokeWidth=2;" parent="CUuBMCauSZTbOeWWz95r-153" vertex="1">
                    <mxGeometry x="17.273035714285715" y="5.27272727272727" width="4.54543566906057" height="4.54543566906057" as="geometry"/>
                </mxCell>
                <mxCell id="CUuBMCauSZTbOeWWz95r-157" value="$$\textbf{4) } \text{Generate graph}&lt;br&gt;$$" style="text;html=1;align=left;verticalAlign=middle;whiteSpace=wrap;rounded=0;" parent="1" vertex="1">
                    <mxGeometry x="417" y="181.00000000000003" width="60" height="30" as="geometry"/>
                </mxCell>
                <mxCell id="CUuBMCauSZTbOeWWz95r-94" value="" style="group" parent="1" vertex="1" connectable="0">
                    <mxGeometry x="634.0000405844156" y="118.08909090909091" width="50.90995941558441" height="49.09090909090909" as="geometry"/>
                </mxCell>
                <mxCell id="CUuBMCauSZTbOeWWz95r-61" value="" style="shape=table;startSize=0;container=1;collapsible=0;childLayout=tableLayout;fontSize=16;movable=1;resizable=1;rotatable=1;deletable=1;editable=1;locked=0;connectable=1;strokeWidth=2;" parent="CUuBMCauSZTbOeWWz95r-94" vertex="1">
                    <mxGeometry x="7.272816558441557" y="5.909090909090908" width="43.637142857142855" height="43.18181818181818" as="geometry"/>
                </mxCell>
                <mxCell id="CUuBMCauSZTbOeWWz95r-62" value="" style="shape=tableRow;horizontal=0;startSize=0;swimlaneHead=0;swimlaneBody=0;strokeColor=inherit;top=0;left=0;bottom=0;right=0;collapsible=0;dropTarget=0;fillColor=none;points=[[0,0.5],[1,0.5]];portConstraint=eastwest;fontSize=16;movable=1;resizable=1;rotatable=1;deletable=1;editable=1;locked=0;connectable=1;" parent="CUuBMCauSZTbOeWWz95r-61" vertex="1">
                    <mxGeometry width="43.637142857142855" height="11" as="geometry"/>
                </mxCell>
                <mxCell id="CUuBMCauSZTbOeWWz95r-63" value="" style="shape=partialRectangle;html=1;whiteSpace=wrap;connectable=1;strokeColor=inherit;overflow=hidden;fillColor=#4D4D4D;top=0;left=0;bottom=0;right=0;pointerEvents=1;fontSize=16;movable=1;resizable=1;rotatable=1;deletable=1;editable=1;locked=0;" parent="CUuBMCauSZTbOeWWz95r-62" vertex="1">
                    <mxGeometry width="11" height="11" as="geometry">
                        <mxRectangle width="11" height="11" as="alternateBounds"/>
                    </mxGeometry>
                </mxCell>
                <mxCell id="CUuBMCauSZTbOeWWz95r-64" value="" style="shape=partialRectangle;html=1;whiteSpace=wrap;connectable=1;strokeColor=inherit;overflow=hidden;fillColor=#999999;top=0;left=0;bottom=0;right=0;pointerEvents=1;fontSize=16;movable=1;resizable=1;rotatable=1;deletable=1;editable=1;locked=0;" parent="CUuBMCauSZTbOeWWz95r-62" vertex="1">
                    <mxGeometry x="11" width="11" height="11" as="geometry">
                        <mxRectangle width="11" height="11" as="alternateBounds"/>
                    </mxGeometry>
                </mxCell>
                <mxCell id="CUuBMCauSZTbOeWWz95r-65" value="" style="shape=partialRectangle;html=1;whiteSpace=wrap;connectable=1;strokeColor=inherit;overflow=hidden;fillColor=#696969;top=0;left=0;bottom=0;right=0;pointerEvents=1;fontSize=16;movable=1;resizable=1;rotatable=1;deletable=1;editable=1;locked=0;" parent="CUuBMCauSZTbOeWWz95r-62" vertex="1">
                    <mxGeometry x="22" width="11" height="11" as="geometry">
                        <mxRectangle width="11" height="11" as="alternateBounds"/>
                    </mxGeometry>
                </mxCell>
                <mxCell id="CUuBMCauSZTbOeWWz95r-66" style="shape=partialRectangle;html=1;whiteSpace=wrap;connectable=1;strokeColor=inherit;overflow=hidden;fillColor=#E0E0E0;top=0;left=0;bottom=0;right=0;pointerEvents=1;fontSize=16;movable=1;resizable=1;rotatable=1;deletable=1;editable=1;locked=0;" parent="CUuBMCauSZTbOeWWz95r-62" vertex="1">
                    <mxGeometry x="33" width="11" height="11" as="geometry">
                        <mxRectangle width="11" height="11" as="alternateBounds"/>
                    </mxGeometry>
                </mxCell>
                <mxCell id="CUuBMCauSZTbOeWWz95r-67" value="" style="shape=tableRow;horizontal=0;startSize=0;swimlaneHead=0;swimlaneBody=0;strokeColor=inherit;top=0;left=0;bottom=0;right=0;collapsible=0;dropTarget=0;fillColor=none;points=[[0,0.5],[1,0.5]];portConstraint=eastwest;fontSize=16;movable=1;resizable=1;rotatable=1;deletable=1;editable=1;locked=0;connectable=1;" parent="CUuBMCauSZTbOeWWz95r-61" vertex="1">
                    <mxGeometry y="11" width="43.637142857142855" height="11" as="geometry"/>
                </mxCell>
                <mxCell id="CUuBMCauSZTbOeWWz95r-68" value="" style="shape=partialRectangle;html=1;whiteSpace=wrap;connectable=1;strokeColor=inherit;overflow=hidden;fillColor=#999999;top=0;left=0;bottom=0;right=0;pointerEvents=1;fontSize=16;movable=1;resizable=1;rotatable=1;deletable=1;editable=1;locked=0;" parent="CUuBMCauSZTbOeWWz95r-67" vertex="1">
                    <mxGeometry width="11" height="11" as="geometry">
                        <mxRectangle width="11" height="11" as="alternateBounds"/>
                    </mxGeometry>
                </mxCell>
                <mxCell id="CUuBMCauSZTbOeWWz95r-69" value="" style="shape=partialRectangle;html=1;whiteSpace=wrap;connectable=1;strokeColor=inherit;overflow=hidden;fillColor=#CCCCCC;top=0;left=0;bottom=0;right=0;pointerEvents=1;fontSize=16;movable=1;resizable=1;rotatable=1;deletable=1;editable=1;locked=0;" parent="CUuBMCauSZTbOeWWz95r-67" vertex="1">
                    <mxGeometry x="11" width="11" height="11" as="geometry">
                        <mxRectangle width="11" height="11" as="alternateBounds"/>
                    </mxGeometry>
                </mxCell>
                <mxCell id="CUuBMCauSZTbOeWWz95r-70" value="" style="shape=partialRectangle;html=1;whiteSpace=wrap;connectable=1;strokeColor=inherit;overflow=hidden;fillColor=#B3B3B3;top=0;left=0;bottom=0;right=0;pointerEvents=1;fontSize=16;movable=1;resizable=1;rotatable=1;deletable=1;editable=1;locked=0;" parent="CUuBMCauSZTbOeWWz95r-67" vertex="1">
                    <mxGeometry x="22" width="11" height="11" as="geometry">
                        <mxRectangle width="11" height="11" as="alternateBounds"/>
                    </mxGeometry>
                </mxCell>
                <mxCell id="CUuBMCauSZTbOeWWz95r-71" style="shape=partialRectangle;html=1;whiteSpace=wrap;connectable=1;strokeColor=inherit;overflow=hidden;fillColor=#474747;top=0;left=0;bottom=0;right=0;pointerEvents=1;fontSize=16;movable=1;resizable=1;rotatable=1;deletable=1;editable=1;locked=0;" parent="CUuBMCauSZTbOeWWz95r-67" vertex="1">
                    <mxGeometry x="33" width="11" height="11" as="geometry">
                        <mxRectangle width="11" height="11" as="alternateBounds"/>
                    </mxGeometry>
                </mxCell>
                <mxCell id="CUuBMCauSZTbOeWWz95r-72" value="" style="shape=tableRow;horizontal=0;startSize=0;swimlaneHead=0;swimlaneBody=0;strokeColor=inherit;top=0;left=0;bottom=0;right=0;collapsible=0;dropTarget=0;fillColor=none;points=[[0,0.5],[1,0.5]];portConstraint=eastwest;fontSize=16;movable=1;resizable=1;rotatable=1;deletable=1;editable=1;locked=0;connectable=1;" parent="CUuBMCauSZTbOeWWz95r-61" vertex="1">
                    <mxGeometry y="22" width="43.637142857142855" height="9" as="geometry"/>
                </mxCell>
                <mxCell id="CUuBMCauSZTbOeWWz95r-73" value="" style="shape=partialRectangle;html=1;whiteSpace=wrap;connectable=1;strokeColor=inherit;overflow=hidden;fillColor=#696969;top=0;left=0;bottom=0;right=0;pointerEvents=1;fontSize=16;movable=1;resizable=1;rotatable=1;deletable=1;editable=1;locked=0;" parent="CUuBMCauSZTbOeWWz95r-72" vertex="1">
                    <mxGeometry width="11" height="9" as="geometry">
                        <mxRectangle width="11" height="9" as="alternateBounds"/>
                    </mxGeometry>
                </mxCell>
                <mxCell id="CUuBMCauSZTbOeWWz95r-74" value="" style="shape=partialRectangle;html=1;whiteSpace=wrap;connectable=1;strokeColor=inherit;overflow=hidden;fillColor=#b3b3b3;top=0;left=0;bottom=0;right=0;pointerEvents=1;fontSize=16;movable=1;resizable=1;rotatable=1;deletable=1;editable=1;locked=0;" parent="CUuBMCauSZTbOeWWz95r-72" vertex="1">
                    <mxGeometry x="11" width="11" height="9" as="geometry">
                        <mxRectangle width="11" height="9" as="alternateBounds"/>
                    </mxGeometry>
                </mxCell>
                <mxCell id="CUuBMCauSZTbOeWWz95r-75" value="" style="shape=partialRectangle;html=1;whiteSpace=wrap;connectable=1;strokeColor=inherit;overflow=hidden;fillColor=#000000;top=0;left=0;bottom=0;right=0;pointerEvents=1;fontSize=16;movable=1;resizable=1;rotatable=1;deletable=1;editable=1;locked=0;" parent="CUuBMCauSZTbOeWWz95r-72" vertex="1">
                    <mxGeometry x="22" width="11" height="9" as="geometry">
                        <mxRectangle width="11" height="9" as="alternateBounds"/>
                    </mxGeometry>
                </mxCell>
                <mxCell id="CUuBMCauSZTbOeWWz95r-76" style="shape=partialRectangle;html=1;whiteSpace=wrap;connectable=1;strokeColor=inherit;overflow=hidden;fillColor=#575757;top=0;left=0;bottom=0;right=0;pointerEvents=1;fontSize=16;movable=1;resizable=1;rotatable=1;deletable=1;editable=1;locked=0;" parent="CUuBMCauSZTbOeWWz95r-72" vertex="1">
                    <mxGeometry x="33" width="11" height="9" as="geometry">
                        <mxRectangle width="11" height="9" as="alternateBounds"/>
                    </mxGeometry>
                </mxCell>
                <mxCell id="CUuBMCauSZTbOeWWz95r-77" style="shape=tableRow;horizontal=0;startSize=0;swimlaneHead=0;swimlaneBody=0;strokeColor=inherit;top=0;left=0;bottom=0;right=0;collapsible=0;dropTarget=0;fillColor=none;points=[[0,0.5],[1,0.5]];portConstraint=eastwest;fontSize=16;movable=1;resizable=1;rotatable=1;deletable=1;editable=1;locked=0;connectable=1;" parent="CUuBMCauSZTbOeWWz95r-61" vertex="1">
                    <mxGeometry y="31" width="43.637142857142855" height="12" as="geometry"/>
                </mxCell>
                <mxCell id="CUuBMCauSZTbOeWWz95r-78" style="shape=partialRectangle;html=1;whiteSpace=wrap;connectable=1;strokeColor=inherit;overflow=hidden;fillColor=#e0e0e0;top=0;left=0;bottom=0;right=0;pointerEvents=1;fontSize=16;movable=1;resizable=1;rotatable=1;deletable=1;editable=1;locked=0;" parent="CUuBMCauSZTbOeWWz95r-77" vertex="1">
                    <mxGeometry width="11" height="12" as="geometry">
                        <mxRectangle width="11" height="12" as="alternateBounds"/>
                    </mxGeometry>
                </mxCell>
                <mxCell id="CUuBMCauSZTbOeWWz95r-79" style="shape=partialRectangle;html=1;whiteSpace=wrap;connectable=1;strokeColor=inherit;overflow=hidden;fillColor=#474747;top=0;left=0;bottom=0;right=0;pointerEvents=1;fontSize=16;movable=1;resizable=1;rotatable=1;deletable=1;editable=1;locked=0;" parent="CUuBMCauSZTbOeWWz95r-77" vertex="1">
                    <mxGeometry x="11" width="11" height="12" as="geometry">
                        <mxRectangle width="11" height="12" as="alternateBounds"/>
                    </mxGeometry>
                </mxCell>
                <mxCell id="CUuBMCauSZTbOeWWz95r-80" style="shape=partialRectangle;html=1;whiteSpace=wrap;connectable=1;strokeColor=inherit;overflow=hidden;fillColor=#575757;top=0;left=0;bottom=0;right=0;pointerEvents=1;fontSize=16;movable=1;resizable=1;rotatable=1;deletable=1;editable=1;locked=0;" parent="CUuBMCauSZTbOeWWz95r-77" vertex="1">
                    <mxGeometry x="22" width="11" height="12" as="geometry">
                        <mxRectangle width="11" height="12" as="alternateBounds"/>
                    </mxGeometry>
                </mxCell>
                <mxCell id="CUuBMCauSZTbOeWWz95r-81" style="shape=partialRectangle;html=1;whiteSpace=wrap;connectable=1;strokeColor=inherit;overflow=hidden;fillColor=#292929;top=0;left=0;bottom=0;right=0;pointerEvents=1;fontSize=16;movable=1;resizable=1;rotatable=1;deletable=1;editable=1;locked=0;" parent="CUuBMCauSZTbOeWWz95r-77" vertex="1">
                    <mxGeometry x="33" width="11" height="12" as="geometry">
                        <mxRectangle width="11" height="12" as="alternateBounds"/>
                    </mxGeometry>
                </mxCell>
                <mxCell id="CUuBMCauSZTbOeWWz95r-82" value="" style="group;movable=1;resizable=1;rotatable=1;deletable=1;editable=1;locked=0;connectable=1;" parent="CUuBMCauSZTbOeWWz95r-94" vertex="1" connectable="0">
                    <mxGeometry x="9.545584415584415" width="39.09160714285714" height="4.545454545454545" as="geometry"/>
                </mxCell>
                <mxCell id="CUuBMCauSZTbOeWWz95r-83" value="" style="ellipse;whiteSpace=wrap;html=1;aspect=fixed;fillColor=#f8cecc;strokeColor=#b85450;movable=1;resizable=1;rotatable=1;deletable=1;editable=1;locked=0;connectable=1;strokeWidth=2;" parent="CUuBMCauSZTbOeWWz95r-82" vertex="1">
                    <mxGeometry y="-0.909090909090909" width="4.54543566906057" height="4.54543566906057" as="geometry"/>
                </mxCell>
                <mxCell id="CUuBMCauSZTbOeWWz95r-84" value="" style="ellipse;whiteSpace=wrap;html=1;aspect=fixed;fillColor=#d5e8d4;strokeColor=#82b366;movable=1;resizable=1;rotatable=1;deletable=1;editable=1;locked=0;connectable=1;strokeWidth=2;" parent="CUuBMCauSZTbOeWWz95r-82" vertex="1">
                    <mxGeometry x="11.363839285714286" y="-0.909090909090909" width="4.54543566906057" height="4.54543566906057" as="geometry"/>
                </mxCell>
                <mxCell id="CUuBMCauSZTbOeWWz95r-85" value="" style="ellipse;whiteSpace=wrap;html=1;aspect=fixed;fillColor=#dae8fc;strokeColor=#6c8ebf;movable=1;resizable=1;rotatable=1;deletable=1;editable=1;locked=0;connectable=1;strokeWidth=2;" parent="CUuBMCauSZTbOeWWz95r-82" vertex="1">
                    <mxGeometry x="23.182232142857146" y="-0.909090909090909" width="4.54543566906057" height="4.54543566906057" as="geometry"/>
                </mxCell>
                <mxCell id="CUuBMCauSZTbOeWWz95r-86" value="" style="ellipse;whiteSpace=wrap;html=1;aspect=fixed;fillColor=#ffe6cc;strokeColor=#d79b00;movable=1;resizable=1;rotatable=1;deletable=1;editable=1;locked=0;connectable=1;strokeWidth=2;" parent="CUuBMCauSZTbOeWWz95r-82" vertex="1">
                    <mxGeometry x="34.54607142857143" y="-0.909090909090909" width="4.54543566906057" height="4.54543566906057" as="geometry"/>
                </mxCell>
                <mxCell id="CUuBMCauSZTbOeWWz95r-87" value="" style="group;flipV=1;flipH=0;rotation=90;movable=1;resizable=1;rotatable=1;deletable=1;editable=1;locked=0;connectable=1;" parent="CUuBMCauSZTbOeWWz95r-94" vertex="1" connectable="0">
                    <mxGeometry x="-17.273076298701298" y="25" width="39.09160714285714" height="4.545454545454545" as="geometry"/>
                </mxCell>
                <mxCell id="CUuBMCauSZTbOeWWz95r-88" value="" style="ellipse;whiteSpace=wrap;html=1;aspect=fixed;fillColor=#f8cecc;strokeColor=#b85450;rotation=90;movable=1;resizable=1;rotatable=1;deletable=1;editable=1;locked=0;connectable=1;strokeWidth=2;" parent="CUuBMCauSZTbOeWWz95r-87" vertex="1">
                    <mxGeometry x="17.273035714285715" y="-17.27272727272727" width="4.54543566906057" height="4.54543566906057" as="geometry"/>
                </mxCell>
                <mxCell id="CUuBMCauSZTbOeWWz95r-89" value="" style="ellipse;whiteSpace=wrap;html=1;aspect=fixed;fillColor=#d5e8d4;strokeColor=#82b366;rotation=90;movable=1;resizable=1;rotatable=1;deletable=1;editable=1;locked=0;connectable=1;strokeWidth=2;" parent="CUuBMCauSZTbOeWWz95r-87" vertex="1">
                    <mxGeometry x="17.273035714285715" y="-5.909090909090908" width="4.54543566906057" height="4.54543566906057" as="geometry"/>
                </mxCell>
                <mxCell id="CUuBMCauSZTbOeWWz95r-90" value="" style="ellipse;whiteSpace=wrap;html=1;aspect=fixed;fillColor=#dae8fc;strokeColor=#6c8ebf;rotation=90;movable=1;resizable=1;rotatable=1;deletable=1;editable=1;locked=0;connectable=1;strokeWidth=2;" parent="CUuBMCauSZTbOeWWz95r-87" vertex="1">
                    <mxGeometry x="17.273035714285715" y="5.909090909090908" width="4.54543566906057" height="4.54543566906057" as="geometry"/>
                </mxCell>
                <mxCell id="CUuBMCauSZTbOeWWz95r-91" value="" style="ellipse;whiteSpace=wrap;html=1;aspect=fixed;fillColor=#ffe6cc;strokeColor=#d79b00;rotation=90;movable=1;resizable=1;rotatable=1;deletable=1;editable=1;locked=0;connectable=1;strokeWidth=2;" parent="CUuBMCauSZTbOeWWz95r-87" vertex="1">
                    <mxGeometry x="17.273035714285715" y="17.27272727272727" width="4.54543566906057" height="4.54543566906057" as="geometry"/>
                </mxCell>
                <mxCell id="kqmfeLZbxrfAbbavOwya-2" value="" style="ellipse;whiteSpace=wrap;html=1;aspect=fixed;fillColor=#f8cecc;strokeColor=#b85450;rotation=90;movable=1;resizable=1;rotatable=1;deletable=1;editable=1;locked=0;connectable=1;strokeWidth=10;" parent="1" vertex="1">
                    <mxGeometry x="425.45000000000005" y="236.08999999999997" width="5.55" height="5.55" as="geometry"/>
                </mxCell>
                <mxCell id="kqmfeLZbxrfAbbavOwya-3" value="" style="ellipse;whiteSpace=wrap;html=1;aspect=fixed;fillColor=#d5e8d4;strokeColor=#82b366;rotation=90;movable=1;resizable=1;rotatable=1;deletable=1;editable=1;locked=0;connectable=1;strokeWidth=10;" parent="1" vertex="1">
                    <mxGeometry x="480.9100000000001" y="230.67999999999995" width="5.55" height="5.55" as="geometry"/>
                </mxCell>
                <mxCell id="kqmfeLZbxrfAbbavOwya-5" value="" style="ellipse;whiteSpace=wrap;html=1;aspect=fixed;fillColor=#ffe6cc;strokeColor=#d79b00;rotation=90;movable=1;resizable=1;rotatable=1;deletable=1;editable=1;locked=0;connectable=1;strokeWidth=10;" parent="1" vertex="1">
                    <mxGeometry x="442" y="265.18" width="5.55" height="5.55" as="geometry"/>
                </mxCell>
                <mxCell id="kqmfeLZbxrfAbbavOwya-6" value="" style="ellipse;whiteSpace=wrap;html=1;aspect=fixed;fillColor=#ffe6cc;strokeColor=#d79b00;rotation=90;movable=1;resizable=1;rotatable=1;deletable=1;editable=1;locked=0;connectable=1;strokeWidth=10;" parent="1" vertex="1">
                    <mxGeometry x="474.45000000000005" y="264.6318181818181" width="5.55" height="5.55" as="geometry"/>
                </mxCell>
                <mxCell id="kqmfeLZbxrfAbbavOwya-7" value="" style="ellipse;whiteSpace=wrap;html=1;aspect=fixed;fillColor=#f8cecc;strokeColor=#b85450;rotation=90;movable=1;resizable=1;rotatable=1;deletable=1;editable=1;locked=0;connectable=1;strokeWidth=10;" parent="1" vertex="1">
                    <mxGeometry x="452.54999999999995" y="212.45" width="5.55" height="5.55" as="geometry"/>
                </mxCell>
                <mxCell id="kqmfeLZbxrfAbbavOwya-18" value="" style="shape=table;html=1;whiteSpace=wrap;startSize=0;container=1;collapsible=0;childLayout=tableLayout;columnLines=0;rowLines=0;fontSize=10;strokeColor=default;" parent="1" vertex="1">
                    <mxGeometry x="474" y="330" width="80" height="13" as="geometry"/>
                </mxCell>
                <mxCell id="kqmfeLZbxrfAbbavOwya-19" value="" style="shape=tableRow;horizontal=0;startSize=0;swimlaneHead=0;swimlaneBody=0;top=0;left=0;bottom=0;right=0;collapsible=0;dropTarget=0;fillColor=none;points=[[0,0.5],[1,0.5]];portConstraint=eastwest;fontSize=16;strokeColor=inherit;" parent="kqmfeLZbxrfAbbavOwya-18" vertex="1">
                    <mxGeometry width="80" height="13" as="geometry"/>
                </mxCell>
                <mxCell id="kqmfeLZbxrfAbbavOwya-20" value="2.0" style="shape=partialRectangle;html=1;whiteSpace=wrap;connectable=0;fillColor=none;top=0;left=0;bottom=0;right=0;overflow=hidden;fontSize=8;strokeColor=inherit;" parent="kqmfeLZbxrfAbbavOwya-19" vertex="1">
                    <mxGeometry width="16" height="13" as="geometry">
                        <mxRectangle width="16" height="13" as="alternateBounds"/>
                    </mxGeometry>
                </mxCell>
                <mxCell id="kqmfeLZbxrfAbbavOwya-31" value="1.5" style="shape=partialRectangle;html=1;whiteSpace=wrap;connectable=0;fillColor=none;top=0;left=0;bottom=0;right=0;overflow=hidden;fontSize=8;strokeColor=inherit;" parent="kqmfeLZbxrfAbbavOwya-19" vertex="1">
                    <mxGeometry x="16" width="16" height="13" as="geometry">
                        <mxRectangle width="16" height="13" as="alternateBounds"/>
                    </mxGeometry>
                </mxCell>
                <mxCell id="kqmfeLZbxrfAbbavOwya-32" value="1.2" style="shape=partialRectangle;html=1;whiteSpace=wrap;connectable=0;fillColor=none;top=0;left=0;bottom=0;right=0;overflow=hidden;fontSize=8;strokeColor=inherit;" parent="kqmfeLZbxrfAbbavOwya-19" vertex="1">
                    <mxGeometry x="32" width="16" height="13" as="geometry">
                        <mxRectangle width="16" height="13" as="alternateBounds"/>
                    </mxGeometry>
                </mxCell>
                <mxCell id="kqmfeLZbxrfAbbavOwya-33" value="0.2" style="shape=partialRectangle;html=1;whiteSpace=wrap;connectable=0;fillColor=none;top=0;left=0;bottom=0;right=0;overflow=hidden;fontSize=8;strokeColor=inherit;" parent="kqmfeLZbxrfAbbavOwya-19" vertex="1">
                    <mxGeometry x="48" width="16" height="13" as="geometry">
                        <mxRectangle width="16" height="13" as="alternateBounds"/>
                    </mxGeometry>
                </mxCell>
                <mxCell id="kqmfeLZbxrfAbbavOwya-34" value="0.1" style="shape=partialRectangle;html=1;whiteSpace=wrap;connectable=0;fillColor=none;top=0;left=0;bottom=0;right=0;overflow=hidden;fontSize=8;strokeColor=inherit;" parent="kqmfeLZbxrfAbbavOwya-19" vertex="1">
                    <mxGeometry x="64" width="16" height="13" as="geometry">
                        <mxRectangle width="16" height="13" as="alternateBounds"/>
                    </mxGeometry>
                </mxCell>
                <mxCell id="kqmfeLZbxrfAbbavOwya-36" value="" style="rounded=0;whiteSpace=wrap;html=1;" parent="1" vertex="1">
                    <mxGeometry x="476" y="308" width="10" height="22" as="geometry"/>
                </mxCell>
                <mxCell id="kqmfeLZbxrfAbbavOwya-37" value="" style="rounded=0;whiteSpace=wrap;html=1;" parent="1" vertex="1">
                    <mxGeometry x="493" y="318" width="10" height="12" as="geometry"/>
                </mxCell>
                <mxCell id="kqmfeLZbxrfAbbavOwya-38" value="" style="rounded=0;whiteSpace=wrap;html=1;" parent="1" vertex="1">
                    <mxGeometry x="509" y="320" width="10" height="10" as="geometry"/>
                </mxCell>
                <mxCell id="kqmfeLZbxrfAbbavOwya-39" value="" style="rounded=0;whiteSpace=wrap;html=1;" parent="1" vertex="1">
                    <mxGeometry x="525" y="328" width="10" height="2" as="geometry"/>
                </mxCell>
                <mxCell id="kqmfeLZbxrfAbbavOwya-40" value="" style="rounded=0;whiteSpace=wrap;html=1;" parent="1" vertex="1">
                    <mxGeometry x="541" y="328" width="10" height="2" as="geometry"/>
                </mxCell>
                <mxCell id="kqmfeLZbxrfAbbavOwya-46" value="" style="group;fillColor=none;strokeColor=none;glass=0;opacity=70;" parent="1" vertex="1" connectable="0">
                    <mxGeometry x="655" y="321" width="24" height="35" as="geometry"/>
                </mxCell>
                <mxCell id="kqmfeLZbxrfAbbavOwya-43" value="" style="endArrow=none;html=1;rounded=0;curved=1;" parent="kqmfeLZbxrfAbbavOwya-46" edge="1">
                    <mxGeometry width="50" height="50" relative="1" as="geometry">
                        <mxPoint x="2.090909090909091" y="6.999999999999999" as="sourcePoint"/>
                        <mxPoint x="23.909090909090907" y="6.999999999999999" as="targetPoint"/>
                        <Array as="points">
                            <mxPoint x="13" y="35"/>
                        </Array>
                    </mxGeometry>
                </mxCell>
                <mxCell id="kqmfeLZbxrfAbbavOwya-44" value="" style="endArrow=none;html=1;rounded=0;curved=1;" parent="kqmfeLZbxrfAbbavOwya-46" edge="1">
                    <mxGeometry width="50" height="50" relative="1" as="geometry">
                        <mxPoint x="23.909090909090907" y="6.999999999999999" as="sourcePoint"/>
                        <mxPoint x="34.81818181818181" as="targetPoint"/>
                        <Array as="points">
                            <mxPoint x="25"/>
                        </Array>
                    </mxGeometry>
                </mxCell>
                <mxCell id="kqmfeLZbxrfAbbavOwya-45" value="" style="endArrow=none;html=1;rounded=0;curved=1;" parent="kqmfeLZbxrfAbbavOwya-46" edge="1">
                    <mxGeometry width="50" height="50" relative="1" as="geometry">
                        <mxPoint x="2.090909090909091" y="6.999999999999999" as="sourcePoint"/>
                        <mxPoint x="-8.818181818181817" as="targetPoint"/>
                        <Array as="points">
                            <mxPoint x="1"/>
                        </Array>
                    </mxGeometry>
                </mxCell>
                <mxCell id="kqmfeLZbxrfAbbavOwya-63" value="" style="ellipse;whiteSpace=wrap;html=1;aspect=fixed;fillColor=#ffe6cc;strokeColor=#d79b00;rotation=90;movable=1;resizable=1;rotatable=1;deletable=1;editable=1;locked=0;connectable=1;strokeWidth=2;" parent="kqmfeLZbxrfAbbavOwya-46" vertex="1">
                    <mxGeometry x="9.730000000000018" y="25.00181818181818" width="4.54543566906057" height="4.54543566906057" as="geometry"/>
                </mxCell>
                <mxCell id="kqmfeLZbxrfAbbavOwya-47" value="" style="group;fillColor=none;strokeColor=none;glass=0;opacity=70;" parent="1" vertex="1" connectable="0">
                    <mxGeometry x="635" y="321" width="24" height="35" as="geometry"/>
                </mxCell>
                <mxCell id="kqmfeLZbxrfAbbavOwya-48" value="" style="endArrow=none;html=1;rounded=0;curved=1;" parent="kqmfeLZbxrfAbbavOwya-47" edge="1">
                    <mxGeometry width="50" height="50" relative="1" as="geometry">
                        <mxPoint x="2.090909090909091" y="6.999999999999999" as="sourcePoint"/>
                        <mxPoint x="23.909090909090907" y="6.999999999999999" as="targetPoint"/>
                        <Array as="points">
                            <mxPoint x="13" y="35"/>
                        </Array>
                    </mxGeometry>
                </mxCell>
                <mxCell id="kqmfeLZbxrfAbbavOwya-49" value="" style="endArrow=none;html=1;rounded=0;curved=1;" parent="kqmfeLZbxrfAbbavOwya-47" edge="1">
                    <mxGeometry width="50" height="50" relative="1" as="geometry">
                        <mxPoint x="23.909090909090907" y="6.999999999999999" as="sourcePoint"/>
                        <mxPoint x="34.81818181818181" as="targetPoint"/>
                        <Array as="points">
                            <mxPoint x="25"/>
                        </Array>
                    </mxGeometry>
                </mxCell>
                <mxCell id="kqmfeLZbxrfAbbavOwya-50" value="" style="endArrow=none;html=1;rounded=0;curved=1;" parent="kqmfeLZbxrfAbbavOwya-47" edge="1">
                    <mxGeometry width="50" height="50" relative="1" as="geometry">
                        <mxPoint x="2.090909090909091" y="6.999999999999999" as="sourcePoint"/>
                        <mxPoint x="-8.818181818181817" as="targetPoint"/>
                        <Array as="points">
                            <mxPoint x="1"/>
                        </Array>
                    </mxGeometry>
                </mxCell>
                <mxCell id="kqmfeLZbxrfAbbavOwya-64" value="" style="ellipse;whiteSpace=wrap;html=1;aspect=fixed;fillColor=#d5e8d4;strokeColor=#82b366;rotation=90;movable=1;resizable=1;rotatable=1;deletable=1;editable=1;locked=0;connectable=1;strokeWidth=2;" parent="kqmfeLZbxrfAbbavOwya-47" vertex="1">
                    <mxGeometry x="9.730000000000018" y="25" width="4.54543566906057" height="4.54543566906057" as="geometry"/>
                </mxCell>
                <mxCell id="kqmfeLZbxrfAbbavOwya-51" value="" style="group;fillColor=none;strokeColor=none;glass=0;opacity=70;" parent="1" vertex="1" connectable="0">
                    <mxGeometry x="617" y="321" width="24" height="35" as="geometry"/>
                </mxCell>
                <mxCell id="kqmfeLZbxrfAbbavOwya-52" value="" style="endArrow=none;html=1;rounded=0;curved=1;" parent="kqmfeLZbxrfAbbavOwya-51" edge="1">
                    <mxGeometry width="50" height="50" relative="1" as="geometry">
                        <mxPoint x="2.090909090909091" y="6.999999999999999" as="sourcePoint"/>
                        <mxPoint x="23.909090909090907" y="6.999999999999999" as="targetPoint"/>
                        <Array as="points">
                            <mxPoint x="13" y="35"/>
                        </Array>
                    </mxGeometry>
                </mxCell>
                <mxCell id="kqmfeLZbxrfAbbavOwya-53" value="" style="endArrow=none;html=1;rounded=0;curved=1;" parent="kqmfeLZbxrfAbbavOwya-51" edge="1">
                    <mxGeometry width="50" height="50" relative="1" as="geometry">
                        <mxPoint x="23.909090909090907" y="6.999999999999999" as="sourcePoint"/>
                        <mxPoint x="34.81818181818181" as="targetPoint"/>
                        <Array as="points">
                            <mxPoint x="25"/>
                        </Array>
                    </mxGeometry>
                </mxCell>
                <mxCell id="kqmfeLZbxrfAbbavOwya-54" value="" style="endArrow=none;html=1;rounded=0;curved=1;" parent="kqmfeLZbxrfAbbavOwya-51" edge="1">
                    <mxGeometry width="50" height="50" relative="1" as="geometry">
                        <mxPoint x="2.090909090909091" y="6.999999999999999" as="sourcePoint"/>
                        <mxPoint x="-8.818181818181817" as="targetPoint"/>
                        <Array as="points">
                            <mxPoint x="1"/>
                        </Array>
                    </mxGeometry>
                </mxCell>
                <mxCell id="kqmfeLZbxrfAbbavOwya-65" value="" style="ellipse;whiteSpace=wrap;html=1;aspect=fixed;fillColor=#f8cecc;strokeColor=#b85450;rotation=90;movable=1;resizable=1;rotatable=1;deletable=1;editable=1;locked=0;connectable=1;strokeWidth=2;" parent="kqmfeLZbxrfAbbavOwya-51" vertex="1">
                    <mxGeometry x="9.730000000000018" y="24.99636363636364" width="4.54543566906057" height="4.54543566906057" as="geometry"/>
                </mxCell>
                <mxCell id="kqmfeLZbxrfAbbavOwya-55" value="" style="endArrow=none;html=1;rounded=0;entryX=1;entryY=0;entryDx=0;entryDy=0;curved=1;exitX=0;exitY=0;exitDx=0;exitDy=0;strokeColor=#A8A8A8;opacity=60;strokeWidth=3;" parent="1" source="kqmfeLZbxrfAbbavOwya-36" target="kqmfeLZbxrfAbbavOwya-40" edge="1">
                    <mxGeometry width="50" height="50" relative="1" as="geometry">
                        <mxPoint x="481" y="308" as="sourcePoint"/>
                        <mxPoint x="531" y="258" as="targetPoint"/>
                        <Array as="points">
                            <mxPoint x="504" y="328"/>
                        </Array>
                    </mxGeometry>
                </mxCell>
                <mxCell id="kqmfeLZbxrfAbbavOwya-56" value="" style="shape=table;html=1;whiteSpace=wrap;startSize=0;container=1;collapsible=0;childLayout=tableLayout;columnLines=0;rowLines=0;fontSize=10;strokeColor=default;" parent="1" vertex="1">
                    <mxGeometry x="607" y="307.23" width="80" height="13" as="geometry"/>
                </mxCell>
                <mxCell id="kqmfeLZbxrfAbbavOwya-57" value="" style="shape=tableRow;horizontal=0;startSize=0;swimlaneHead=0;swimlaneBody=0;top=0;left=0;bottom=0;right=0;collapsible=0;dropTarget=0;fillColor=none;points=[[0,0.5],[1,0.5]];portConstraint=eastwest;fontSize=16;strokeColor=inherit;" parent="kqmfeLZbxrfAbbavOwya-56" vertex="1">
                    <mxGeometry width="80" height="13" as="geometry"/>
                </mxCell>
                <mxCell id="kqmfeLZbxrfAbbavOwya-58" value="2.0" style="shape=partialRectangle;html=1;whiteSpace=wrap;connectable=0;fillColor=#f8cecc;top=0;left=0;bottom=0;right=0;overflow=hidden;fontSize=8;strokeColor=#b85450;" parent="kqmfeLZbxrfAbbavOwya-57" vertex="1">
                    <mxGeometry width="16" height="13" as="geometry">
                        <mxRectangle width="16" height="13" as="alternateBounds"/>
                    </mxGeometry>
                </mxCell>
                <mxCell id="kqmfeLZbxrfAbbavOwya-59" value="1.5" style="shape=partialRectangle;html=1;whiteSpace=wrap;connectable=0;fillColor=#f8cecc;top=0;left=0;bottom=0;right=0;overflow=hidden;fontSize=8;strokeColor=#b85450;" parent="kqmfeLZbxrfAbbavOwya-57" vertex="1">
                    <mxGeometry x="16" width="16" height="13" as="geometry">
                        <mxRectangle width="16" height="13" as="alternateBounds"/>
                    </mxGeometry>
                </mxCell>
                <mxCell id="kqmfeLZbxrfAbbavOwya-60" value="1.2" style="shape=partialRectangle;html=1;whiteSpace=wrap;connectable=0;fillColor=#d5e8d4;top=0;left=0;bottom=0;right=0;overflow=hidden;fontSize=8;strokeColor=#82b366;" parent="kqmfeLZbxrfAbbavOwya-57" vertex="1">
                    <mxGeometry x="32" width="16" height="13" as="geometry">
                        <mxRectangle width="16" height="13" as="alternateBounds"/>
                    </mxGeometry>
                </mxCell>
                <mxCell id="kqmfeLZbxrfAbbavOwya-61" value="0.2" style="shape=partialRectangle;html=1;whiteSpace=wrap;connectable=0;fillColor=#fff2cc;top=0;left=0;bottom=0;right=0;overflow=hidden;fontSize=8;strokeColor=#d6b656;" parent="kqmfeLZbxrfAbbavOwya-57" vertex="1">
                    <mxGeometry x="48" width="16" height="13" as="geometry">
                        <mxRectangle width="16" height="13" as="alternateBounds"/>
                    </mxGeometry>
                </mxCell>
                <mxCell id="kqmfeLZbxrfAbbavOwya-62" value="0.1" style="shape=partialRectangle;html=1;whiteSpace=wrap;connectable=0;fillColor=#fff2cc;top=0;left=0;bottom=0;right=0;overflow=hidden;fontSize=8;strokeColor=#d6b656;" parent="kqmfeLZbxrfAbbavOwya-57" vertex="1">
                    <mxGeometry x="64" width="16" height="13" as="geometry">
                        <mxRectangle width="16" height="13" as="alternateBounds"/>
                    </mxGeometry>
                </mxCell>
                <mxCell id="kqmfeLZbxrfAbbavOwya-66" value="" style="endArrow=classic;html=1;rounded=0;exitX=1.012;exitY=1.016;exitDx=0;exitDy=0;exitPerimeter=0;" parent="1" edge="1">
                    <mxGeometry width="50" height="50" relative="1" as="geometry">
                        <mxPoint x="685.96" y="321.20799999999997" as="sourcePoint"/>
                        <mxPoint x="595" y="321" as="targetPoint"/>
                    </mxGeometry>
                </mxCell>
                <mxCell id="kqmfeLZbxrfAbbavOwya-68" value="&lt;font style=&quot;font-size: 10px;&quot;&gt;$$\boldsymbol{\delta}$$&lt;/font&gt;" style="text;html=1;align=center;verticalAlign=middle;whiteSpace=wrap;rounded=0;" parent="1" vertex="1">
                    <mxGeometry x="584" y="302" width="26.45" height="10" as="geometry"/>
                </mxCell>
                <mxCell id="kqmfeLZbxrfAbbavOwya-69" value="&lt;font style=&quot;font-size: 10px;&quot;&gt;$$\boldsymbol{\alpha}$$&lt;/font&gt;" style="text;html=1;align=center;verticalAlign=middle;whiteSpace=wrap;rounded=0;" parent="1" vertex="1">
                    <mxGeometry x="488.09000000000003" y="300.18" width="26.45" height="10" as="geometry"/>
                </mxCell>
                <mxCell id="kqmfeLZbxrfAbbavOwya-71" value="" style="endArrow=classic;startArrow=classic;html=1;rounded=0;strokeWidth=0.4;strokeColor=#6E6E6E;" parent="1" edge="1">
                    <mxGeometry width="50" height="50" relative="1" as="geometry">
                        <mxPoint x="658" y="331" as="sourcePoint"/>
                        <mxPoint x="678" y="331" as="targetPoint"/>
                    </mxGeometry>
                </mxCell>
                <mxCell id="kqmfeLZbxrfAbbavOwya-72" value="&lt;span style=&quot;color: rgb(0, 0, 0); font-family: Helvetica; font-size: 10px; font-style: normal; font-variant-ligatures: normal; font-variant-caps: normal; font-weight: 400; letter-spacing: normal; orphans: 2; text-align: center; text-indent: 0px; text-transform: none; widows: 2; word-spacing: 0px; -webkit-text-stroke-width: 0px; background-color: rgb(251, 251, 251); text-decoration-thickness: initial; text-decoration-style: initial; text-decoration-color: initial; float: none; display: inline !important;&quot;&gt;$$\boldsymbol{\rho}$$&lt;/span&gt;" style="text;whiteSpace=wrap;html=1;" parent="1" vertex="1">
                    <mxGeometry x="679" y="311.55" width="17" height="40" as="geometry"/>
                </mxCell>
                <mxCell id="kqmfeLZbxrfAbbavOwya-74" value="$$\xrightarrow{\delta, \rho}$$" style="text;html=1;align=center;verticalAlign=middle;whiteSpace=wrap;rounded=0;fontSize=16;" parent="1" vertex="1">
                    <mxGeometry x="550.23" y="315.78" width="60" height="30" as="geometry"/>
                </mxCell>
                <mxCell id="kqmfeLZbxrfAbbavOwya-90" value="$$\xrightarrow{\mu, \sigma}$$" style="text;html=1;align=center;verticalAlign=middle;whiteSpace=wrap;rounded=0;fontSize=16;rotation=0;" parent="1" vertex="1">
                    <mxGeometry x="720" y="239.68" width="60" height="30" as="geometry"/>
                </mxCell>
                <mxCell id="kqmfeLZbxrfAbbavOwya-91" value="" style="endArrow=none;html=1;rounded=0;exitX=0.863;exitY=-0.272;exitDx=0;exitDy=0;exitPerimeter=0;entryX=0.338;entryY=1.309;entryDx=0;entryDy=0;entryPerimeter=0;strokeColor=#424242;" parent="1" source="kqmfeLZbxrfAbbavOwya-96" target="kqmfeLZbxrfAbbavOwya-97" edge="1">
                    <mxGeometry width="50" height="50" relative="1" as="geometry">
                        <mxPoint x="822" y="271" as="sourcePoint"/>
                        <mxPoint x="872" y="221" as="targetPoint"/>
                    </mxGeometry>
                </mxCell>
                <mxCell id="kqmfeLZbxrfAbbavOwya-92" value="" style="endArrow=none;html=1;rounded=0;exitX=1.164;exitY=0.027;exitDx=0;exitDy=0;exitPerimeter=0;entryX=-0.191;entryY=1.029;entryDx=0;entryDy=0;entryPerimeter=0;strokeColor=#424242;" parent="1" source="kqmfeLZbxrfAbbavOwya-100" target="kqmfeLZbxrfAbbavOwya-97" edge="1">
                    <mxGeometry width="50" height="50" relative="1" as="geometry">
                        <mxPoint x="835" y="271" as="sourcePoint"/>
                        <mxPoint x="856" y="279" as="targetPoint"/>
                    </mxGeometry>
                </mxCell>
                <mxCell id="kqmfeLZbxrfAbbavOwya-93" value="" style="endArrow=none;html=1;rounded=0;exitX=1.366;exitY=0.889;exitDx=0;exitDy=0;exitPerimeter=0;entryX=-0.26;entryY=0.237;entryDx=0;entryDy=0;entryPerimeter=0;strokeColor=#424242;" parent="1" source="kqmfeLZbxrfAbbavOwya-97" target="kqmfeLZbxrfAbbavOwya-99" edge="1">
                    <mxGeometry width="50" height="50" relative="1" as="geometry">
                        <mxPoint x="853" y="267" as="sourcePoint"/>
                        <mxPoint x="858" y="276" as="targetPoint"/>
                    </mxGeometry>
                </mxCell>
                <mxCell id="kqmfeLZbxrfAbbavOwya-94" value="" style="endArrow=none;html=1;rounded=0;exitX=0.488;exitY=0.735;exitDx=0;exitDy=0;exitPerimeter=0;entryX=1;entryY=0;entryDx=0;entryDy=0;strokeColor=#424242;" parent="1" source="kqmfeLZbxrfAbbavOwya-99" target="kqmfeLZbxrfAbbavOwya-98" edge="1">
                    <mxGeometry width="50" height="50" relative="1" as="geometry">
                        <mxPoint x="859" y="283" as="sourcePoint"/>
                        <mxPoint x="854" y="295" as="targetPoint"/>
                    </mxGeometry>
                </mxCell>
                <mxCell id="kqmfeLZbxrfAbbavOwya-95" value="" style="endArrow=none;html=1;rounded=0;exitX=0.668;exitY=0.83;exitDx=0;exitDy=0;exitPerimeter=0;entryX=0.289;entryY=0.305;entryDx=0;entryDy=0;strokeColor=#424242;entryPerimeter=0;" parent="1" source="kqmfeLZbxrfAbbavOwya-100" target="kqmfeLZbxrfAbbavOwya-96" edge="1">
                    <mxGeometry width="50" height="50" relative="1" as="geometry">
                        <mxPoint x="836" y="265" as="sourcePoint"/>
                        <mxPoint x="820" y="257" as="targetPoint"/>
                    </mxGeometry>
                </mxCell>
                <mxCell id="kqmfeLZbxrfAbbavOwya-96" value="" style="ellipse;whiteSpace=wrap;html=1;aspect=fixed;fillColor=#f8cecc;strokeColor=#b85450;rotation=90;movable=1;resizable=1;rotatable=1;deletable=1;editable=1;locked=0;connectable=1;strokeWidth=5;" parent="1" vertex="1">
                    <mxGeometry x="818" y="256.6363636363636" width="4.54543566906057" height="4.54543566906057" as="geometry"/>
                </mxCell>
                <mxCell id="kqmfeLZbxrfAbbavOwya-97" value="" style="ellipse;whiteSpace=wrap;html=1;aspect=fixed;fillColor=#d5e8d4;strokeColor=#82b366;rotation=90;movable=1;resizable=1;rotatable=1;deletable=1;editable=1;locked=0;connectable=1;strokeWidth=5;" parent="1" vertex="1">
                    <mxGeometry x="848.45" y="267.22999999999996" width="4.54543566906057" height="4.54543566906057" as="geometry"/>
                </mxCell>
                <mxCell id="kqmfeLZbxrfAbbavOwya-98" value="" style="ellipse;whiteSpace=wrap;html=1;aspect=fixed;fillColor=#ffe6cc;strokeColor=#d79b00;rotation=90;movable=1;resizable=1;rotatable=1;deletable=1;editable=1;locked=0;connectable=1;strokeWidth=5;" parent="1" vertex="1">
                    <mxGeometry x="822" y="276.18181818181813" width="4.54543566906057" height="4.54543566906057" as="geometry"/>
                </mxCell>
                <mxCell id="kqmfeLZbxrfAbbavOwya-99" value="" style="ellipse;whiteSpace=wrap;html=1;aspect=fixed;fillColor=#ffe6cc;strokeColor=#d79b00;rotation=90;movable=1;resizable=1;rotatable=1;deletable=1;editable=1;locked=0;connectable=1;strokeWidth=5;" parent="1" vertex="1">
                    <mxGeometry x="840.45" y="286.0018181818181" width="4.54543566906057" height="4.54543566906057" as="geometry"/>
                </mxCell>
                <mxCell id="kqmfeLZbxrfAbbavOwya-100" value="" style="ellipse;whiteSpace=wrap;html=1;aspect=fixed;fillColor=#f8cecc;strokeColor=#b85450;rotation=90;movable=1;resizable=1;rotatable=1;deletable=1;editable=1;locked=0;connectable=1;strokeWidth=5;" parent="1" vertex="1">
                    <mxGeometry x="838" y="250.68636363636364" width="4.54543566906057" height="4.54543566906057" as="geometry"/>
                </mxCell>
                <mxCell id="kqmfeLZbxrfAbbavOwya-101" value="" style="rounded=0;whiteSpace=wrap;html=1;" parent="1" vertex="1">
                    <mxGeometry x="797" y="241" width="30" height="10" as="geometry"/>
                </mxCell>
                <mxCell id="kqmfeLZbxrfAbbavOwya-106" value="" style="rounded=0;whiteSpace=wrap;html=1;fillColor=#76608a;fontColor=#ffffff;strokeColor=#432D57;" parent="1" vertex="1">
                    <mxGeometry x="819" y="241" width="10" height="10" as="geometry"/>
                </mxCell>
                <mxCell id="kqmfeLZbxrfAbbavOwya-107" value="" style="rounded=0;whiteSpace=wrap;html=1;fillColor=#a0522d;fontColor=#ffffff;strokeColor=#6D1F00;" parent="1" vertex="1">
                    <mxGeometry x="808" y="241" width="10" height="10" as="geometry"/>
                </mxCell>
                <mxCell id="kqmfeLZbxrfAbbavOwya-108" value="" style="rounded=0;whiteSpace=wrap;html=1;fillColor=#6d8764;fontColor=#ffffff;strokeColor=#3A5431;" parent="1" vertex="1">
                    <mxGeometry x="797" y="241" width="10" height="10" as="geometry"/>
                </mxCell>
                <mxCell id="kqmfeLZbxrfAbbavOwya-109" value="" style="rounded=0;whiteSpace=wrap;html=1;" parent="1" vertex="1">
                    <mxGeometry x="839" y="235" width="30" height="10" as="geometry"/>
                </mxCell>
                <mxCell id="kqmfeLZbxrfAbbavOwya-110" value="" style="rounded=0;whiteSpace=wrap;html=1;fillColor=#C09CE0;fontColor=#ffffff;strokeColor=#432D57;" parent="1" vertex="1">
                    <mxGeometry x="861" y="235" width="10" height="10" as="geometry"/>
                </mxCell>
                <mxCell id="kqmfeLZbxrfAbbavOwya-111" value="" style="rounded=0;whiteSpace=wrap;html=1;fillColor=#703A20;fontColor=#ffffff;strokeColor=#6D1F00;" parent="1" vertex="1">
                    <mxGeometry x="850" y="235" width="10" height="10" as="geometry"/>
                </mxCell>
                <mxCell id="kqmfeLZbxrfAbbavOwya-112" value="" style="rounded=0;whiteSpace=wrap;html=1;fillColor=#A1C793;fontColor=#ffffff;strokeColor=#3A5431;" parent="1" vertex="1">
                    <mxGeometry x="839" y="235" width="10" height="10" as="geometry"/>
                </mxCell>
                <mxCell id="kqmfeLZbxrfAbbavOwya-113" value="" style="rounded=0;whiteSpace=wrap;html=1;" parent="1" vertex="1">
                    <mxGeometry x="858" y="258" width="30" height="10" as="geometry"/>
                </mxCell>
                <mxCell id="kqmfeLZbxrfAbbavOwya-114" value="" style="rounded=0;whiteSpace=wrap;html=1;fillColor=#a0522d;fontColor=#ffffff;strokeColor=#6D1F00;" parent="1" vertex="1">
                    <mxGeometry x="880" y="258" width="10" height="10" as="geometry"/>
                </mxCell>
                <mxCell id="kqmfeLZbxrfAbbavOwya-115" value="" style="rounded=0;whiteSpace=wrap;html=1;fillColor=#647687;fontColor=#ffffff;strokeColor=#314354;" parent="1" vertex="1">
                    <mxGeometry x="869" y="258" width="10" height="10" as="geometry"/>
                </mxCell>
                <mxCell id="kqmfeLZbxrfAbbavOwya-116" value="" style="rounded=0;whiteSpace=wrap;html=1;fillColor=#e3c800;fontColor=#000000;strokeColor=#B09500;" parent="1" vertex="1">
                    <mxGeometry x="858" y="258" width="10" height="10" as="geometry"/>
                </mxCell>
                <mxCell id="kqmfeLZbxrfAbbavOwya-117" value="" style="rounded=0;whiteSpace=wrap;html=1;" parent="1" vertex="1">
                    <mxGeometry x="852" y="278" width="30" height="10" as="geometry"/>
                </mxCell>
                <mxCell id="kqmfeLZbxrfAbbavOwya-118" value="" style="rounded=0;whiteSpace=wrap;html=1;fillColor=#6d8764;fontColor=#ffffff;strokeColor=#3A5431;" parent="1" vertex="1">
                    <mxGeometry x="874" y="278" width="10" height="10" as="geometry"/>
                </mxCell>
                <mxCell id="kqmfeLZbxrfAbbavOwya-119" value="" style="rounded=0;whiteSpace=wrap;html=1;fillColor=#fa6800;fontColor=#000000;strokeColor=#C73500;" parent="1" vertex="1">
                    <mxGeometry x="863" y="278" width="10" height="10" as="geometry"/>
                </mxCell>
                <mxCell id="kqmfeLZbxrfAbbavOwya-120" value="" style="rounded=0;whiteSpace=wrap;html=1;fillColor=#fa6800;fontColor=#000000;strokeColor=#C73500;" parent="1" vertex="1">
                    <mxGeometry x="852" y="278" width="10" height="10" as="geometry"/>
                </mxCell>
                <mxCell id="kqmfeLZbxrfAbbavOwya-122" value="" style="rounded=0;whiteSpace=wrap;html=1;fillColor=#404F3B;fontColor=#ffffff;strokeColor=#3A5431;" parent="1" vertex="1">
                    <mxGeometry x="816" y="287" width="10" height="10" as="geometry"/>
                </mxCell>
                <mxCell id="kqmfeLZbxrfAbbavOwya-123" value="" style="rounded=0;whiteSpace=wrap;html=1;fillColor=#9C4100;fontColor=#000000;strokeColor=#C73500;" parent="1" vertex="1">
                    <mxGeometry x="805" y="287" width="10" height="10" as="geometry"/>
                </mxCell>
                <mxCell id="kqmfeLZbxrfAbbavOwya-124" value="" style="rounded=0;whiteSpace=wrap;html=1;fillColor=#471E00;fontColor=#000000;strokeColor=#C73500;" parent="1" vertex="1">
                    <mxGeometry x="794" y="287" width="10" height="10" as="geometry"/>
                </mxCell>
                <mxCell id="kqmfeLZbxrfAbbavOwya-139" value="" style="rounded=0;whiteSpace=wrap;html=1;gradientColor=#990000;gradientDirection=north;fillColor=#FFCCCC;strokeColor=#000000;strokeWidth=0.2;" parent="1" vertex="1">
                    <mxGeometry x="864" y="121.18" width="7" height="43" as="geometry"/>
                </mxCell>
                <mxCell id="kqmfeLZbxrfAbbavOwya-141" value="&lt;b&gt;0&lt;/b&gt;&lt;font style=&quot;font-size: 6px;&quot;&gt;&lt;br style=&quot;font-size: 6px;&quot;&gt;&lt;/font&gt;" style="text;html=1;align=center;verticalAlign=middle;whiteSpace=wrap;rounded=0;fontSize=6;" parent="1" vertex="1">
                    <mxGeometry x="870" y="157.18" width="10" height="10" as="geometry"/>
                </mxCell>
                <mxCell id="kqmfeLZbxrfAbbavOwya-142" value="&lt;b&gt;1&lt;/b&gt;&lt;font style=&quot;font-size: 6px;&quot;&gt;&lt;br style=&quot;font-size: 6px;&quot;&gt;&lt;/font&gt;" style="text;html=1;align=center;verticalAlign=middle;whiteSpace=wrap;rounded=0;fontSize=6;" parent="1" vertex="1">
                    <mxGeometry x="870" y="116.18" width="10" height="10" as="geometry"/>
                </mxCell>
                <mxCell id="kqmfeLZbxrfAbbavOwya-157" value="" style="ellipse;whiteSpace=wrap;html=1;aspect=fixed;fillColor=#f8cecc;strokeColor=#b85450;rotation=90;movable=1;resizable=1;rotatable=1;deletable=1;editable=1;locked=0;connectable=1;strokeWidth=10;" parent="1" vertex="1">
                    <mxGeometry x="622.45" y="230.08999999999997" width="5.55" height="5.55" as="geometry"/>
                </mxCell>
                <mxCell id="kqmfeLZbxrfAbbavOwya-158" value="" style="ellipse;whiteSpace=wrap;html=1;aspect=fixed;fillColor=#d5e8d4;strokeColor=#82b366;rotation=90;movable=1;resizable=1;rotatable=1;deletable=1;editable=1;locked=0;connectable=1;strokeWidth=10;" parent="1" vertex="1">
                    <mxGeometry x="680.9100000000001" y="228.67999999999995" width="5.55" height="5.55" as="geometry"/>
                </mxCell>
                <mxCell id="kqmfeLZbxrfAbbavOwya-159" value="" style="ellipse;whiteSpace=wrap;html=1;aspect=fixed;fillColor=#ffe6cc;strokeColor=#d79b00;rotation=90;movable=1;resizable=1;rotatable=1;deletable=1;editable=1;locked=0;connectable=1;strokeWidth=10;" parent="1" vertex="1">
                    <mxGeometry x="640" y="263.18" width="5.55" height="5.55" as="geometry"/>
                </mxCell>
                <mxCell id="kqmfeLZbxrfAbbavOwya-160" value="" style="ellipse;whiteSpace=wrap;html=1;aspect=fixed;fillColor=#ffe6cc;strokeColor=#d79b00;rotation=90;movable=1;resizable=1;rotatable=1;deletable=1;editable=1;locked=0;connectable=1;strokeWidth=10;" parent="1" vertex="1">
                    <mxGeometry x="675.45" y="259.6318181818181" width="5.55" height="5.55" as="geometry"/>
                </mxCell>
                <mxCell id="kqmfeLZbxrfAbbavOwya-161" value="" style="ellipse;whiteSpace=wrap;html=1;aspect=fixed;fillColor=#f8cecc;strokeColor=#b85450;rotation=90;movable=1;resizable=1;rotatable=1;deletable=1;editable=1;locked=0;connectable=1;strokeWidth=10;" parent="1" vertex="1">
                    <mxGeometry x="650.55" y="212.45" width="5.55" height="5.55" as="geometry"/>
                </mxCell>
                <mxCell id="_qW_ouCz6JZJT4QljbRx-2" value="$$\boldsymbol{\theta}$$" style="text;html=1;align=center;verticalAlign=middle;whiteSpace=wrap;rounded=0;movable=1;resizable=1;rotatable=1;deletable=1;editable=1;locked=0;connectable=1;fontSize=10;" parent="1" vertex="1">
                    <mxGeometry x="628.8210714285714" y="295.45" width="40.90982142857143" height="9.09090909090909" as="geometry"/>
                </mxCell>
                <mxCell id="_qW_ouCz6JZJT4QljbRx-3" value="&lt;font style=&quot;font-size: 8px;&quot;&gt;$$\theta_i \theta_j \mathbf{P}[c(i),c(j)]$$&lt;/font&gt;" style="text;html=1;align=center;verticalAlign=middle;whiteSpace=wrap;rounded=0;rotation=-30;fontSize=8;" parent="1" vertex="1">
                    <mxGeometry x="603.1" y="193" width="60" height="30" as="geometry"/>
                </mxCell>
                <mxCell id="_qW_ouCz6JZJT4QljbRx-5" value="" style="endArrow=none;dashed=1;html=1;dashPattern=1 3;strokeWidth=1;rounded=0;entryX=0.5;entryY=1;entryDx=0;entryDy=0;exitX=0.538;exitY=0.835;exitDx=0;exitDy=0;exitPerimeter=0;fontStyle=1" parent="1" edge="1">
                    <mxGeometry width="50" height="50" relative="1" as="geometry">
                        <mxPoint x="633.9995379206285" y="216.0135553080338" as="sourcePoint"/>
                        <mxPoint x="640.5" y="224.44038105676668" as="targetPoint"/>
                    </mxGeometry>
                </mxCell>
                <mxCell id="KYuE0DD9sM46bIQEkPxD-6" value="" style="group" parent="1" vertex="1" connectable="0">
                    <mxGeometry x="430.1" y="297" width="30.90000000000009" height="64.77000000000004" as="geometry"/>
                </mxCell>
                <mxCell id="kqmfeLZbxrfAbbavOwya-73" value="$$\xrightarrow{\mathcal{n, \alpha}}$$" style="text;html=1;align=center;verticalAlign=middle;whiteSpace=wrap;rounded=0;rotation=90;fontSize=16;horizontal=0;" parent="KYuE0DD9sM46bIQEkPxD-6" vertex="1">
                    <mxGeometry x="-14.099999999999909" y="19.77000000000004" width="60" height="30" as="geometry"/>
                </mxCell>
                <mxCell id="KYuE0DD9sM46bIQEkPxD-3" value="" style="endArrow=none;html=1;rounded=0;" parent="KYuE0DD9sM46bIQEkPxD-6" edge="1">
                    <mxGeometry width="50" height="50" relative="1" as="geometry">
                        <mxPoint y="40" as="sourcePoint"/>
                        <mxPoint as="targetPoint"/>
                    </mxGeometry>
                </mxCell>
                <mxCell id="KYuE0DD9sM46bIQEkPxD-10" value="" style="endArrow=open;html=1;rounded=0;endFill=0;" parent="1" edge="1">
                    <mxGeometry width="50" height="50" relative="1" as="geometry">
                        <mxPoint x="543" y="235" as="sourcePoint"/>
                        <mxPoint x="573" y="235" as="targetPoint"/>
                    </mxGeometry>
                </mxCell>
                <mxCell id="C82nVLx3EcEH5GJK0T5T-46" value="" style="ellipse;whiteSpace=wrap;html=1;fillColor=none;dashed=1;dashPattern=8 8;opacity=50;" parent="1" vertex="1">
                    <mxGeometry x="414" y="205" width="85" height="80" as="geometry"/>
                </mxCell>
                <mxCell id="C82nVLx3EcEH5GJK0T5T-47" value="$$\text{node initialization}$$" style="text;html=1;align=center;verticalAlign=middle;whiteSpace=wrap;rounded=0;fontColor=#4D4D4D;" parent="1" vertex="1">
                    <mxGeometry x="524.54" y="260" width="60" height="30" as="geometry"/>
                </mxCell>
                <mxCell id="C82nVLx3EcEH5GJK0T5T-57" value="$$\text{edge generation}$$" style="text;html=1;align=center;verticalAlign=middle;whiteSpace=wrap;rounded=0;fontColor=#4D4D4D;" parent="1" vertex="1">
                    <mxGeometry x="722" y="192" width="60" height="30" as="geometry"/>
                </mxCell>
                <mxCell id="C82nVLx3EcEH5GJK0T5T-58" value="" style="ellipse;whiteSpace=wrap;html=1;fillColor=none;dashed=1;dashPattern=8 8;opacity=50;" parent="1" vertex="1">
                    <mxGeometry x="777.27" y="221.64" width="126" height="97.14" as="geometry"/>
                </mxCell>
                <mxCell id="C82nVLx3EcEH5GJK0T5T-60" value="$$\text{feature generation}$$" style="text;html=1;align=center;verticalAlign=middle;whiteSpace=wrap;rounded=0;fontColor=#4D4D4D;" parent="1" vertex="1">
                    <mxGeometry x="841" y="196" width="60" height="30" as="geometry"/>
                </mxCell>
                <mxCell id="C82nVLx3EcEH5GJK0T5T-67" value="&lt;font&gt;$$4.3$$&lt;/font&gt;" style="text;html=1;align=center;verticalAlign=middle;whiteSpace=wrap;rounded=0;fontColor=#4D4D4D;" parent="1" vertex="1">
                    <mxGeometry x="683" y="179.82" width="60" height="30" as="geometry"/>
                </mxCell>
                <mxCell id="C82nVLx3EcEH5GJK0T5T-68" value="&lt;font&gt;$$4.4$$&lt;/font&gt;" style="text;html=1;align=center;verticalAlign=middle;whiteSpace=wrap;rounded=0;fontColor=#4D4D4D;" parent="1" vertex="1">
                    <mxGeometry x="793.9999999999999" y="182" width="60" height="30" as="geometry"/>
                </mxCell>
                <mxCell id="CUuBMCauSZTbOeWWz95r-24" value="$$\textbf{3) } \text{Sample + Scale } \boldsymbol{\widetilde{P}} \text{ to}$$" style="text;html=1;align=left;verticalAlign=middle;whiteSpace=wrap;rounded=0;" parent="1" vertex="1">
                    <mxGeometry x="417" y="113" width="180" height="24" as="geometry"/>
                </mxCell>
                <mxCell id="90" value="$$ \text{ probability matrix }\boldsymbol{P}$$" style="text;html=1;align=left;verticalAlign=middle;whiteSpace=wrap;rounded=0;" vertex="1" parent="1">
                    <mxGeometry x="430.91" y="136" width="180" height="24" as="geometry"/>
                </mxCell>
                <mxCell id="102" value="" style="ellipse;whiteSpace=wrap;html=1;fillColor=none;dashed=1;dashPattern=8 8;opacity=50;" vertex="1" parent="1">
                    <mxGeometry x="599" y="187" width="110" height="94" as="geometry"/>
                </mxCell>
                <mxCell id="C82nVLx3EcEH5GJK0T5T-54" value="$$\text{4.2 degree factor initialization}$$" style="text;html=1;align=center;verticalAlign=middle;whiteSpace=wrap;rounded=0;fontColor=#666666;" parent="1" vertex="1">
                    <mxGeometry x="760" y="318" width="60" height="30" as="geometry"/>
                </mxCell>
                <mxCell id="C82nVLx3EcEH5GJK0T5T-63" value="$$\text{&amp;amp; assignment}$$" style="text;html=1;align=center;verticalAlign=middle;whiteSpace=wrap;rounded=0;fontColor=#4D4D4D;" parent="1" vertex="1">
                    <mxGeometry x="761" y="331" width="60" height="30" as="geometry"/>
                </mxCell>
                <mxCell id="C82nVLx3EcEH5GJK0T5T-65" value="&lt;font&gt;$$4.1$$&lt;/font&gt;" style="text;html=1;align=center;verticalAlign=middle;whiteSpace=wrap;rounded=0;fontColor=#4D4D4D;" parent="1" vertex="1">
                    <mxGeometry x="479.2" y="248.34" width="60" height="30" as="geometry"/>
                </mxCell>
                <mxCell id="CUuBMCauSZTbOeWWz95r-11" value="&lt;span style=&quot;color: rgb(0, 0, 0); font-family: Helvetica; font-size: 12px; font-style: normal; font-variant-ligatures: normal; font-variant-caps: normal; font-weight: 400; letter-spacing: normal; orphans: 2; text-align: center; text-indent: 0px; text-transform: none; widows: 2; word-spacing: 0px; -webkit-text-stroke-width: 0px; background-color: rgb(251, 251, 251); text-decoration-thickness: initial; text-decoration-style: initial; text-decoration-color: initial; float: none; display: inline !important;&quot;&gt;$$\textbf{GRAPH SAMPLE}$$&lt;/span&gt;" style="text;whiteSpace=wrap;html=1;" parent="1" vertex="1">
                    <mxGeometry x="607" y="-2.7700000000000102" width="69" height="40" as="geometry"/>
                </mxCell>
                <mxCell id="98" value="" style="rounded=1;whiteSpace=wrap;html=1;textOpacity=0;opacity=50;strokeWidth=1;fillStyle=dashed;fillColor=none;dashed=1;dashPattern=12 12;" vertex="1" parent="1">
                    <mxGeometry x="421.45" y="293" width="275.55" height="60" as="geometry"/>
                </mxCell>
                <mxCell id="KbBnwbsYyjUJBn2AxFHm-5" value="$$\text{edge propensity }&lt;br&gt;\boldsymbol{\widetilde{P}}$$" style="text;html=1;align=center;verticalAlign=middle;whiteSpace=wrap;rounded=0;movable=1;resizable=1;rotatable=1;deletable=1;editable=1;locked=0;connectable=1;" parent="1" vertex="1">
                    <mxGeometry x="55" y="82" width="90" height="20" as="geometry"/>
                </mxCell>
            </root>
        </mxGraphModel>
    </diagram>
</mxfile>